<?xml version="1.0" encoding="utf-8" standalone="yes"?>
<!DOCTYPE svg PUBLIC "-//W3C//DTD SVG 1.1//EN" "http://www.w3.org/Graphics/SVG/1.1/DTD/svg11.dtd">
<svg width="768" height="409" viewBox="0 0 768 409" style="fill:none;stroke:none;fill-rule:evenodd;clip-rule:evenodd;stroke-linecap:round;stroke-linejoin:round;stroke-miterlimit:1.5;" version="1.1" xmlns="http://www.w3.org/2000/svg" xmlns:xlink="http://www.w3.org/1999/xlink"><style id="fontImports">@import url("https://fonts.googleapis.com/css2?family=Roboto:wght@400;700&amp;display=block");</style><g id="items" style="isolation: isolate"><g id="blend" style="mix-blend-mode:multiply"><g id="g-root-ro_8d8a1m8usjk-fill" data-item-order="-29232" data-item-id="ro_8d8a1m8usjk" data-item-class="Shape Stroke Fill" data-item-index="none" data-renderer-id="0" transform="translate(302, 15)"><g id="ro_8d8a1m8usjk-fill" stroke="none" fill="#f0f0f0"><g><path d="M 34 10L 154 10C 154 10 178 10 178 34L 178 160C 178 160 178 184 154 184L 34 184C 34 184 10 184 10 160L 10 34C 10 34 10 10 34 10"></path></g></g></g><g id="g-root-ro_1q9h7vtm8kydr-fill" data-item-order="-10368" data-item-id="ro_1q9h7vtm8kydr" data-item-class="Shape Stroke Fill" data-item-index="none" data-renderer-id="0" transform="translate(518, 3)"><g id="ro_1q9h7vtm8kydr-fill" stroke="none" fill="#e9fbf3"><g><path d="M 22 10L 190 10C 190 10 202 10 202 22L 202 52C 202 52 202 64 190 64L 22 64C 22 64 10 64 10 52L 10 22C 10 22 10 10 22 10"></path></g></g></g><g id="g-root-ro_142dsfdm8i3gv-fill" data-item-order="-9720" data-item-id="ro_142dsfdm8i3gv" data-item-class="Shape Stroke Fill" data-item-index="none" data-renderer-id="0" transform="translate(296, 225)"><g id="ro_142dsfdm8i3gv-fill" stroke="none" fill="#fef2e6"><g><path d="M 22 10L 178 10C 178 10 190 10 190 22L 190 52C 190 52 190 64 178 64L 22 64C 22 64 10 64 10 52L 10 22C 10 22 10 10 22 10"></path></g></g></g><g id="g-root-ro_zlxwdlm8fa4o-fill" data-item-order="-9072" data-item-id="ro_zlxwdlm8fa4o" data-item-class="Shape Stroke Fill" data-item-index="none" data-renderer-id="0" transform="translate(86, 3)"><g id="ro_zlxwdlm8fa4o-fill" stroke="none" fill="#e6efff"><g><path d="M 22 10L 166 10C 166 10 178 10 178 22L 178 52C 178 52 178 64 166 64L 22 64C 22 64 10 64 10 52L 10 22C 10 22 10 10 22 10"></path></g></g></g><g id="g-root-code_4jtoa1m8kwzy-fill" data-item-order="0" data-item-id="code_4jtoa1m8kwzy" data-item-class="Icon Stroke" data-item-index="none" data-renderer-id="0" transform="translate(530, 15)"></g><g id="g-root-cu_v64e95m8fawx-fill" data-item-order="0" data-item-id="cu_v64e95m8fawx" data-item-class="Curve Stroke ColorFillGray ColorStrokeGray" data-item-index="none" data-renderer-id="0" transform="translate(254, 30)"></g><g id="g-root-tx_ocrsoftw_qqapt5m8kxs5-fill" data-item-order="0" data-item-id="tx_ocrsoftw_qqapt5m8kxs5" data-item-class="Label Stroke" data-item-index="none" data-renderer-id="0" transform="translate(566, 18)"><g id="tx_ocrsoftw_qqapt5m8kxs5-fill" stroke="none" fill="#3bc482"><g><text style="font: 20px Roboto, sans-serif; white-space: pre;"><tspan x="14.06" y="34" dominant-baseline="ideographic">OCR Software</tspan></text></g></g></g><g id="g-root-1_9408ixm8uqz3-fill" data-item-order="0" data-item-id="1_9408ixm8uqz3" data-item-class="Icon Stroke" data-item-index="none" data-renderer-id="0" transform="translate(362, 39)"></g><g id="g-root-cu_hunvvtm8fchw-fill" data-item-order="0" data-item-id="cu_hunvvtm8fchw" data-item-class="Curve Stroke ColorFillGray ColorStrokeGray" data-item-index="none" data-renderer-id="0" transform="translate(470, 30)"></g><g id="g-root-tx_imageana_zmkaaxm8i494-fill" data-item-order="0" data-item-id="tx_imageana_zmkaaxm8i494" data-item-class="Label Stroke" data-item-index="none" data-renderer-id="0" transform="translate(62, 69)"><g id="tx_imageana_zmkaaxm8i494-fill" stroke="none" fill="#484848"><g><text style="font: 20px Roboto, sans-serif; white-space: pre;"><tspan x="14.31" y="34" dominant-baseline="ideographic">Image Analysis</tspan></text></g></g></g><g id="g-root-cu_dfguuhm8fa4i-fill" data-item-order="0" data-item-id="cu_dfguuhm8fa4i" data-item-class="Curve Stroke ColorFillGray ColorStrokeGray" data-item-index="none" data-renderer-id="0" transform="translate(212, 57)"></g><g id="g-root-cu_4jtullm8fax9-fill" data-item-order="0" data-item-id="cu_4jtullm8fax9" data-item-class="Curve Stroke ColorFillGray ColorStrokeGray" data-item-index="none" data-renderer-id="0" transform="translate(212, 57)"></g><g id="g-root-cu_40ch5m8fbpj-fill" data-item-order="0" data-item-id="cu_40ch5m8fbpj" data-item-class="Curve Stroke ColorFillGray ColorStrokeGray" data-item-index="none" data-renderer-id="0" transform="translate(212, 57)"></g><g id="g-root-cu_1upawbtm8fcap-fill" data-item-order="0" data-item-id="cu_1upawbtm8fcap" data-item-class="Curve Stroke ColorFillGray ColorStrokeGray" data-item-index="none" data-renderer-id="0" transform="translate(542, 57)"></g><g id="g-root-cu_1luad61m8f9xo-fill" data-item-order="0" data-item-id="cu_1luad61m8f9xo" data-item-class="Curve Stroke ColorFillGray ColorStrokeGray" data-item-index="none" data-renderer-id="0" transform="translate(542, 57)"></g><g id="g-root-cu_1luad61m8f9xq-fill" data-item-order="0" data-item-id="cu_1luad61m8f9xq" data-item-class="Curve Stroke ColorFillGray ColorStrokeGray" data-item-index="none" data-renderer-id="0" transform="translate(542, 57)"></g><g id="g-root-tx_imagepro_1qaq97tm8i39f-fill" data-item-order="0" data-item-id="tx_imagepro_1qaq97tm8i39f" data-item-class="Label Stroke" data-item-index="none" data-renderer-id="0" transform="translate(566, 69)"><g id="tx_imagepro_1qaq97tm8i39f-fill" stroke="none" fill="#484848"><g><text style="font: 20px Roboto, sans-serif; white-space: pre;"><tspan x="13.99" y="34" dominant-baseline="ideographic">Image Processing</tspan></text></g></g></g><g id="g-root-tx_characte_mb3rxlm8i5u1-fill" data-item-order="0" data-item-id="tx_characte_mb3rxlm8i5u1" data-item-class="Label Stroke" data-item-index="none" data-renderer-id="0" transform="translate(2, 105)"><g id="tx_characte_mb3rxlm8i5u1-fill" stroke="none" fill="#484848"><g><text style="font: 20px Roboto, sans-serif; white-space: pre;"><tspan x="13.4" y="34" dominant-baseline="ideographic">Character Recognition</tspan></text></g></g></g><g id="g-root-tx_textextr_zqas6hm8uqz2-fill" data-item-order="0" data-item-id="tx_textextr_zqas6hm8uqz2" data-item-class="Label Stroke" data-item-index="none" data-renderer-id="0" transform="translate(326, 93)"><g id="tx_textextr_zqas6hm8uqz2-fill" stroke="none" fill="#484848"><g><text style="font: 20px Roboto, sans-serif; white-space: pre;"><tspan x="50.99" y="34" dominant-baseline="ideographic">Text </tspan><tspan x="25.31" y="58" dominant-baseline="ideographic">Extraction </tspan><tspan x="13.31" y="82" dominant-baseline="ideographic">from Images</tspan></text></g></g></g><g id="g-root-tx_textconv_143mqllm8i5n0-fill" data-item-order="0" data-item-id="tx_textconv_143mqllm8i5n0" data-item-class="Label Stroke" data-item-index="none" data-renderer-id="0" transform="translate(566, 105)"><g id="tx_textconv_143mqllm8i5n0-fill" stroke="none" fill="#484848"><g><text style="font: 20px Roboto, sans-serif; white-space: pre;"><tspan x="16.52" y="34" dominant-baseline="ideographic">Text Conversion</tspan></text></g></g></g><g id="g-root-tx_wordiden_909qndm8i496-fill" data-item-order="0" data-item-id="tx_wordiden_909qndm8i496" data-item-class="Label Stroke" data-item-index="none" data-renderer-id="0" transform="translate(26, 141)"><g id="tx_wordiden_909qndm8i496-fill" stroke="none" fill="#484848"><g><text style="font: 20px Roboto, sans-serif; white-space: pre;"><tspan x="16.17" y="34" dominant-baseline="ideographic">Word Identification</tspan></text></g></g></g><g id="g-root-tx_editinga_4mbns9m8i41s-fill" data-item-order="0" data-item-id="tx_editinga_4mbns9m8i41s" data-item-class="Label Stroke" data-item-index="none" data-renderer-id="0" transform="translate(344, 363)"><g id="tx_editinga_4mbns9m8i41s-fill" stroke="none" fill="#484848"><g><text style="font: 20px Roboto, sans-serif; white-space: pre;"><tspan x="12.43" y="34" dominant-baseline="ideographic">Editing and Searching Text</tspan></text></g></g></g><g id="g-root-tx_editingc_qsspbdm8i425-fill" data-item-order="0" data-item-id="tx_editingc_qsspbdm8i425" data-item-class="Label Stroke" data-item-index="none" data-renderer-id="0" transform="translate(566, 141)"><g id="tx_editingc_qsspbdm8i425-fill" stroke="none" fill="#484848"><g><text style="font: 20px Roboto, sans-serif; white-space: pre;"><tspan x="15.01" y="34" dominant-baseline="ideographic">Editing Capabilities</tspan></text></g></g></g><g id="g-root-cu_hunvvtm8fchz-fill" data-item-order="0" data-item-id="cu_hunvvtm8fchz" data-item-class="Curve Stroke ColorFillGray ColorStrokeGray" data-item-index="none" data-renderer-id="0" transform="translate(386, 189)"></g><g id="g-root-2_1cwrxntm8fbpj-fill" data-item-order="0" data-item-id="2_1cwrxntm8fbpj" data-item-class="Icon Stroke" data-item-index="none" data-renderer-id="0" transform="translate(212, 15)"></g><g id="g-root-appl_1hd7tplm8i51q-fill" data-item-order="0" data-item-id="appl_1hd7tplm8i51q" data-item-class="Icon Stroke" data-item-index="none" data-renderer-id="0" transform="translate(308, 237)"></g><g id="g-root-tx_applicat_4ikt9lm8i611-fill" data-item-order="0" data-item-id="tx_applicat_4ikt9lm8i611" data-item-class="Label Stroke" data-item-index="none" data-renderer-id="0" transform="translate(344, 240)"><g id="tx_applicat_4ikt9lm8i611-fill" stroke="none" fill="#dd8433"><g><text style="font: 20px Roboto, sans-serif; white-space: pre;"><tspan x="14.65" y="34" dominant-baseline="ideographic">Applications</tspan></text></g></g></g><g id="g-root-cu_1hegv1lm8faq0-fill" data-item-order="0" data-item-id="cu_1hegv1lm8faq0" data-item-class="Curve Stroke ColorFillGray ColorStrokeGray" data-item-index="none" data-renderer-id="0" transform="translate(320, 279)"></g><g id="g-root-cu_1430co9m8fcaz-fill" data-item-order="0" data-item-id="cu_1430co9m8fcaz" data-item-class="Curve Stroke ColorFillGray ColorStrokeGray" data-item-index="none" data-renderer-id="0" transform="translate(320, 279)"></g><g id="g-root-cu_zntbmxm8f9xh-fill" data-item-order="0" data-item-id="cu_zntbmxm8f9xh" data-item-class="Curve Stroke ColorFillGray ColorStrokeGray" data-item-index="none" data-renderer-id="0" transform="translate(320, 279)"></g><g id="g-root-tx_digitizi_mcz76xm8i4ue-fill" data-item-order="0" data-item-id="tx_digitizi_mcz76xm8i4ue" data-item-class="Label Stroke" data-item-index="none" data-renderer-id="0" transform="translate(344, 291)"><g id="tx_digitizi_mcz76xm8i4ue-fill" stroke="none" fill="#484848"><g><text style="font: 20px Roboto, sans-serif; white-space: pre;"><tspan x="16.41" y="34" dominant-baseline="ideographic">Digitizing Printed Materials</tspan></text></g></g></g><g id="g-root-tx_enhancin_9255wpm8i39j-fill" data-item-order="0" data-item-id="tx_enhancin_9255wpm8i39j" data-item-class="Label Stroke" data-item-index="none" data-renderer-id="0" transform="translate(344, 327)"><g id="tx_enhancin_9255wpm8i39j-fill" stroke="none" fill="#484848"><g><text style="font: 20px Roboto, sans-serif; white-space: pre;"><tspan x="13.15" y="34" dominant-baseline="ideographic">Enhancing Accessibility</tspan></text></g></g></g><g id="g-root-tx_techniqu_1unfh2hm8fci6-fill" data-item-order="0" data-item-id="tx_techniqu_1unfh2hm8fci6" data-item-class="Label Stroke" data-item-index="none" data-renderer-id="0" transform="translate(98, 18)"><g id="tx_techniqu_1unfh2hm8fci6-fill" stroke="none" fill="#4682e3"><g><text style="font: 20px Roboto, sans-serif; white-space: pre;"><tspan x="12.88" y="34" dominant-baseline="ideographic">Techniques</tspan></text></g></g></g><g id="g-root-ro_8d8a1m8usjk-stroke" data-item-order="-29232" data-item-id="ro_8d8a1m8usjk" data-item-class="Shape Stroke Fill" data-item-index="none" data-renderer-id="0" transform="translate(302, 15)"><g id="ro_8d8a1m8usjk-stroke" fill="none" stroke-linecap="round" stroke-linejoin="round" stroke-miterlimit="4" stroke="#484848" stroke-width="2"><g><path d="M 34 10L 154 10C 154 10 178 10 178 34L 178 160C 178 160 178 184 154 184L 34 184C 34 184 10 184 10 160L 10 34C 10 34 10 10 34 10"></path></g></g></g><g id="g-root-ro_1q9h7vtm8kydr-stroke" data-item-order="-10368" data-item-id="ro_1q9h7vtm8kydr" data-item-class="Shape Stroke Fill" data-item-index="none" data-renderer-id="0" transform="translate(518, 3)"><g id="ro_1q9h7vtm8kydr-stroke" fill="none" stroke-linecap="round" stroke-linejoin="round" stroke-miterlimit="4" stroke="#3bc482" stroke-width="2"><g><path d="M 22 10L 190 10C 190 10 202 10 202 22L 202 52C 202 52 202 64 190 64L 22 64C 22 64 10 64 10 52L 10 22C 10 22 10 10 22 10"></path></g></g></g><g id="g-root-ro_142dsfdm8i3gv-stroke" data-item-order="-9720" data-item-id="ro_142dsfdm8i3gv" data-item-class="Shape Stroke Fill" data-item-index="none" data-renderer-id="0" transform="translate(296, 225)"><g id="ro_142dsfdm8i3gv-stroke" fill="none" stroke-linecap="round" stroke-linejoin="round" stroke-miterlimit="4" stroke="#dd8433" stroke-width="2"><g><path d="M 22 10L 178 10C 178 10 190 10 190 22L 190 52C 190 52 190 64 178 64L 22 64C 22 64 10 64 10 52L 10 22C 10 22 10 10 22 10"></path></g></g></g><g id="g-root-ro_zlxwdlm8fa4o-stroke" data-item-order="-9072" data-item-id="ro_zlxwdlm8fa4o" data-item-class="Shape Stroke Fill" data-item-index="none" data-renderer-id="0" transform="translate(86, 3)"><g id="ro_zlxwdlm8fa4o-stroke" fill="none" stroke-linecap="round" stroke-linejoin="round" stroke-miterlimit="4" stroke="#4682e3" stroke-width="2"><g><path d="M 22 10L 166 10C 166 10 178 10 178 22L 178 52C 178 52 178 64 166 64L 22 64C 22 64 10 64 10 52L 10 22C 10 22 10 10 22 10"></path></g></g></g><g id="g-root-code_4jtoa1m8kwzy-stroke" data-item-order="0" data-item-id="code_4jtoa1m8kwzy" data-item-class="Icon Stroke" data-item-index="none" data-renderer-id="0" transform="translate(530, 15)"><g id="code_4jtoa1m8kwzy-stroke" fill="none" stroke-linecap="round" stroke-linejoin="round" stroke-miterlimit="4" stroke="#3bc482" stroke-width="2"><g><path d="M 23.125 22.5L 20.625 25L 23.125 27.5M 26.875 22.5L 29.375 25L 26.875 27.5M 25 36.5625L 25 36.5625C 25.172588 36.5625 25.3125 36.702412 25.3125 36.875L 25.3125 36.875C 25.3125 37.047588 25.172588 37.1875 25 37.1875L 25 37.1875C 24.827412 37.1875 24.6875 37.047588 24.6875 36.875L 24.6875 36.875C 24.6875 36.702412 24.827412 36.5625 25 36.5625M 19.375 10.625L 30.625 10.625C 30.625 10.625 33.125 10.625 33.125 13.125L 33.125 36.875C 33.125 36.875 33.125 39.375 30.625 39.375L 19.375 39.375C 19.375 39.375 16.875 39.375 16.875 36.875L 16.875 13.125C 16.875 13.125 16.875 10.625 19.375 10.625M 33.125 34.375L 16.875 34.375M 33.125 15.625L 16.875 15.625M 23.125 13.125L 26.875 13.125"></path></g></g></g><g id="g-root-cu_v64e95m8fawx-stroke" data-item-order="0" data-item-id="cu_v64e95m8fawx" data-item-class="Curve Stroke ColorFillGray ColorStrokeGray" data-item-index="none" data-renderer-id="0" transform="translate(254, 30)"><g id="cu_v64e95m8fawx-stroke" fill="none" stroke-linecap="round" stroke-linejoin="round" stroke-miterlimit="4" stroke="#888888" stroke-width="2" stroke-dasharray="5.0, 7.0"><g><path d="M 58 53L 55 53L 54.9 53C 43.357252 53.000001 34.000002 43.642752 34.000002 32.1L 34 32L 34 30.9C 33.999998 19.357248 24.64275 10 13.1 10L 13 10L 10 10"></path></g></g></g><g id="g-root-tx_ocrsoftw_qqapt5m8kxs5-stroke" data-item-order="0" data-item-id="tx_ocrsoftw_qqapt5m8kxs5" data-item-class="Label Stroke" data-item-index="none" data-renderer-id="0" transform="translate(566, 18)"></g><g id="g-root-1_9408ixm8uqz3-stroke" data-item-order="0" data-item-id="1_9408ixm8uqz3" data-item-class="Icon Stroke" data-item-index="none" data-renderer-id="0" transform="translate(362, 39)"><g id="1_9408ixm8uqz3-stroke" fill="none" stroke-linecap="round" stroke-linejoin="round" stroke-miterlimit="4" stroke="#484848" stroke-width="2"><g><path d="M 35 54C 35 55.656857 33.656853 57 32 57L 14 57C 12.343145 57 11 55.656857 11 54L 11 30C 11 28.343145 12.343145 27 14 27L 25.757999 27C 26.553095 27.00017 27.315603 27.315964 27.878 27.878L 34.122002 34.122002C 34.684036 34.684395 34.999832 35.446907 35 36.242001ZM 17 34L 24 34M 17 40.5L 29 40.5M 17 47L 29 47M 39 18L 46 18M 39 24.5L 51 24.5M 39 31L 51 31M 41 41L 54 41C 55.656857 41 57 39.656853 57 38L 57 20.242001C 56.999832 19.446907 56.684036 18.684397 56.122002 18.122002L 49.877998 11.878C 49.315605 11.315964 48.553097 11.00017 47.757999 11L 36 11C 34.343147 11 33 12.343145 33 14L 33 25M 21 12L 24 15L 21 18M 24 15L 18 15C 16.343145 15 15 16.343145 15 18L 15 22M 45 56L 42 53L 45 50M 42 53L 48 53C 49.656857 53 51 51.656857 51 50L 51 46"></path></g></g></g><g id="g-root-cu_hunvvtm8fchw-stroke" data-item-order="0" data-item-id="cu_hunvvtm8fchw" data-item-class="Curve Stroke ColorFillGray ColorStrokeGray" data-item-index="none" data-renderer-id="0" transform="translate(470, 30)"><g id="cu_hunvvtm8fchw-stroke" fill="none" stroke-linecap="round" stroke-linejoin="round" stroke-miterlimit="4" stroke="#888888" stroke-width="2" stroke-dasharray="5.0, 7.0"><g><path d="M 10 53L 13 53L 13.1 53C 24.642753 52.999998 34.000001 43.642749 34 32.099998L 34 32L 34 30.9C 33.999999 19.357249 43.357248 10.000001 54.899999 10.000002L 55 10L 58 10"></path></g></g></g><g id="g-root-tx_imageana_zmkaaxm8i494-stroke" data-item-order="0" data-item-id="tx_imageana_zmkaaxm8i494" data-item-class="Label Stroke" data-item-index="none" data-renderer-id="0" transform="translate(62, 69)"></g><g id="g-root-cu_dfguuhm8fa4i-stroke" data-item-order="0" data-item-id="cu_dfguuhm8fa4i" data-item-class="Curve Stroke ColorFillGray ColorStrokeGray" data-item-index="none" data-renderer-id="0" transform="translate(212, 57)"><g id="cu_dfguuhm8fa4i-stroke" fill="none" stroke-linecap="round" stroke-linejoin="round" stroke-miterlimit="4" stroke="#888888" stroke-width="2" stroke-dasharray="5.0, 7.0"><g><path d="M 28 10L 28 22L 28 34L 19 34L 10 34"></path></g></g></g><g id="g-root-cu_4jtullm8fax9-stroke" data-item-order="0" data-item-id="cu_4jtullm8fax9" data-item-class="Curve Stroke ColorFillGray ColorStrokeGray" data-item-index="none" data-renderer-id="0" transform="translate(212, 57)"><g id="cu_4jtullm8fax9-stroke" fill="none" stroke-linecap="round" stroke-linejoin="round" stroke-miterlimit="4" stroke="#888888" stroke-width="2" stroke-dasharray="5.0, 7.0"><g><path d="M 28 10L 28 40L 28 70L 19 70L 10 70"></path></g></g></g><g id="g-root-cu_40ch5m8fbpj-stroke" data-item-order="0" data-item-id="cu_40ch5m8fbpj" data-item-class="Curve Stroke ColorFillGray ColorStrokeGray" data-item-index="none" data-renderer-id="0" transform="translate(212, 57)"><g id="cu_40ch5m8fbpj-stroke" fill="none" stroke-linecap="round" stroke-linejoin="round" stroke-miterlimit="4" stroke="#888888" stroke-width="2" stroke-dasharray="5.0, 7.0"><g><path d="M 28 10L 28 22L 28 94C 28.000002 100.627415 22.627419 105.999998 16.000002 105.999998L 15.9 106L 10 106"></path></g></g></g><g id="g-root-cu_1upawbtm8fcap-stroke" data-item-order="0" data-item-id="cu_1upawbtm8fcap" data-item-class="Curve Stroke ColorFillGray ColorStrokeGray" data-item-index="none" data-renderer-id="0" transform="translate(542, 57)"><g id="cu_1upawbtm8fcap-stroke" fill="none" stroke-linecap="round" stroke-linejoin="round" stroke-miterlimit="4" stroke="#888888" stroke-width="2" stroke-dasharray="5.0, 7.0"><g><path d="M 10 10L 10 22L 10 34L 19 34L 28 34"></path></g></g></g><g id="g-root-cu_1luad61m8f9xo-stroke" data-item-order="0" data-item-id="cu_1luad61m8f9xo" data-item-class="Curve Stroke ColorFillGray ColorStrokeGray" data-item-index="none" data-renderer-id="0" transform="translate(542, 57)"><g id="cu_1luad61m8f9xo-stroke" fill="none" stroke-linecap="round" stroke-linejoin="round" stroke-miterlimit="4" stroke="#888888" stroke-width="2" stroke-dasharray="5.0, 7.0"><g><path d="M 10 10L 10 40L 10 70L 19 70L 28 70"></path></g></g></g><g id="g-root-cu_1luad61m8f9xq-stroke" data-item-order="0" data-item-id="cu_1luad61m8f9xq" data-item-class="Curve Stroke ColorFillGray ColorStrokeGray" data-item-index="none" data-renderer-id="0" transform="translate(542, 57)"><g id="cu_1luad61m8f9xq-stroke" fill="none" stroke-linecap="round" stroke-linejoin="round" stroke-miterlimit="4" stroke="#888888" stroke-width="2" stroke-dasharray="5.0, 7.0"><g><path d="M 10 10L 10 22L 10 94C 10.000004 100.627423 15.372587 106.000006 22.000005 106.000005L 22.1 106L 28 106"></path></g></g></g><g id="g-root-tx_imagepro_1qaq97tm8i39f-stroke" data-item-order="0" data-item-id="tx_imagepro_1qaq97tm8i39f" data-item-class="Label Stroke" data-item-index="none" data-renderer-id="0" transform="translate(566, 69)"></g><g id="g-root-tx_characte_mb3rxlm8i5u1-stroke" data-item-order="0" data-item-id="tx_characte_mb3rxlm8i5u1" data-item-class="Label Stroke" data-item-index="none" data-renderer-id="0" transform="translate(2, 105)"></g><g id="g-root-tx_textextr_zqas6hm8uqz2-stroke" data-item-order="0" data-item-id="tx_textextr_zqas6hm8uqz2" data-item-class="Label Stroke" data-item-index="none" data-renderer-id="0" transform="translate(326, 93)"></g><g id="g-root-tx_textconv_143mqllm8i5n0-stroke" data-item-order="0" data-item-id="tx_textconv_143mqllm8i5n0" data-item-class="Label Stroke" data-item-index="none" data-renderer-id="0" transform="translate(566, 105)"></g><g id="g-root-tx_wordiden_909qndm8i496-stroke" data-item-order="0" data-item-id="tx_wordiden_909qndm8i496" data-item-class="Label Stroke" data-item-index="none" data-renderer-id="0" transform="translate(26, 141)"></g><g id="g-root-tx_editinga_4mbns9m8i41s-stroke" data-item-order="0" data-item-id="tx_editinga_4mbns9m8i41s" data-item-class="Label Stroke" data-item-index="none" data-renderer-id="0" transform="translate(344, 363)"></g><g id="g-root-tx_editingc_qsspbdm8i425-stroke" data-item-order="0" data-item-id="tx_editingc_qsspbdm8i425" data-item-class="Label Stroke" data-item-index="none" data-renderer-id="0" transform="translate(566, 141)"></g><g id="g-root-cu_hunvvtm8fchz-stroke" data-item-order="0" data-item-id="cu_hunvvtm8fchz" data-item-class="Curve Stroke ColorFillGray ColorStrokeGray" data-item-index="none" data-renderer-id="0" transform="translate(386, 189)"><g id="cu_hunvvtm8fchz-stroke" fill="none" stroke-linecap="round" stroke-linejoin="round" stroke-miterlimit="4" stroke="#888888" stroke-width="2" stroke-dasharray="5.0, 7.0"><g><path d="M 10 10L 10 28L 10 46"></path></g></g></g><g id="g-root-2_1cwrxntm8fbpj-stroke" data-item-order="0" data-item-id="2_1cwrxntm8fbpj" data-item-class="Icon Stroke" data-item-index="none" data-renderer-id="0" transform="translate(212, 15)"><g id="2_1cwrxntm8fbpj-stroke" fill="none" stroke-linecap="round" stroke-linejoin="round" stroke-miterlimit="4" stroke="#4682e3" stroke-width="2"><g><path d="M 37.263752 12.625C 37.547829 12.246228 37.593525 11.739463 37.381786 11.315983C 37.170044 10.892503 36.737217 10.625 36.263748 10.625L 13.7375 10.625C 13.264035 10.625 12.831206 10.892503 12.619466 11.315983C 12.407726 11.739463 12.453421 12.246228 12.7375 12.625L 22.5 25.74L 22.5 38.125C 22.5 38.815353 23.059643 39.375 23.75 39.375L 26.25 39.375C 26.940357 39.375 27.5 38.815353 27.5 38.125L 27.5 25.74Z"></path></g></g></g><g id="g-root-appl_1hd7tplm8i51q-stroke" data-item-order="0" data-item-id="appl_1hd7tplm8i51q" data-item-class="Icon Stroke" data-item-index="none" data-renderer-id="0" transform="translate(308, 237)"><g id="appl_1hd7tplm8i51q-stroke" fill="none" stroke-linecap="round" stroke-linejoin="round" stroke-miterlimit="4" stroke="#dd8433" stroke-width="2"><g><path d="M 38.92857 28.214285L 38.92857 32.5C 38.92857 33.091732 38.448875 33.571426 37.857143 33.571426L 12.142857 33.571426C 11.551124 33.571426 11.071428 33.091732 11.071428 32.5L 11.071428 28.214285M 11.071428 19.642857L 11.071428 15.357142C 11.071428 14.765409 11.551124 14.285714 12.142857 14.285714L 37.857143 14.285714C 38.448875 14.285714 38.92857 14.765409 38.92857 15.357142L 38.92857 19.642857M 22.857143 33.571426L 20.714285 38.92857M 27.142857 33.571426L 29.285713 38.92857M 18.571428 38.92857L 31.42857 38.92857M 21.785713 19.642857L 28.214285 19.642857L 28.214285 28.214285L 21.785713 28.214285ZM 16.428572 20.714285L 13.214286 23.928572L 16.428572 27.142857M 33.571426 20.714285L 36.785713 23.928572L 33.571426 27.142857"></path></g></g></g><g id="g-root-tx_applicat_4ikt9lm8i611-stroke" data-item-order="0" data-item-id="tx_applicat_4ikt9lm8i611" data-item-class="Label Stroke" data-item-index="none" data-renderer-id="0" transform="translate(344, 240)"></g><g id="g-root-cu_1hegv1lm8faq0-stroke" data-item-order="0" data-item-id="cu_1hegv1lm8faq0" data-item-class="Curve Stroke ColorFillGray ColorStrokeGray" data-item-index="none" data-renderer-id="0" transform="translate(320, 279)"><g id="cu_1hegv1lm8faq0-stroke" fill="none" stroke-linecap="round" stroke-linejoin="round" stroke-miterlimit="4" stroke="#888888" stroke-width="2" stroke-dasharray="5.0, 7.0"><g><path d="M 10 10L 10 22L 10 34L 19 34L 28 34"></path></g></g></g><g id="g-root-cu_1430co9m8fcaz-stroke" data-item-order="0" data-item-id="cu_1430co9m8fcaz" data-item-class="Curve Stroke ColorFillGray ColorStrokeGray" data-item-index="none" data-renderer-id="0" transform="translate(320, 279)"><g id="cu_1430co9m8fcaz-stroke" fill="none" stroke-linecap="round" stroke-linejoin="round" stroke-miterlimit="4" stroke="#888888" stroke-width="2" stroke-dasharray="5.0, 7.0"><g><path d="M 10 10L 10 40L 10 70L 19 70L 28 70"></path></g></g></g><g id="g-root-cu_zntbmxm8f9xh-stroke" data-item-order="0" data-item-id="cu_zntbmxm8f9xh" data-item-class="Curve Stroke ColorFillGray ColorStrokeGray" data-item-index="none" data-renderer-id="0" transform="translate(320, 279)"><g id="cu_zntbmxm8f9xh-stroke" fill="none" stroke-linecap="round" stroke-linejoin="round" stroke-miterlimit="4" stroke="#888888" stroke-width="2" stroke-dasharray="5.0, 7.0"><g><path d="M 10 10L 10 22L 10 94C 10.000004 100.627423 15.372587 106.000006 22.000005 106.000005L 22.1 106L 28 106"></path></g></g></g><g id="g-root-tx_digitizi_mcz76xm8i4ue-stroke" data-item-order="0" data-item-id="tx_digitizi_mcz76xm8i4ue" data-item-class="Label Stroke" data-item-index="none" data-renderer-id="0" transform="translate(344, 291)"></g><g id="g-root-tx_enhancin_9255wpm8i39j-stroke" data-item-order="0" data-item-id="tx_enhancin_9255wpm8i39j" data-item-class="Label Stroke" data-item-index="none" data-renderer-id="0" transform="translate(344, 327)"></g><g id="g-root-tx_techniqu_1unfh2hm8fci6-stroke" data-item-order="0" data-item-id="tx_techniqu_1unfh2hm8fci6" data-item-class="Label Stroke" data-item-index="none" data-renderer-id="0" transform="translate(98, 18)"></g></g></g></svg>