<?xml version="1.0" encoding="utf-8" standalone="yes"?>
<!DOCTYPE svg PUBLIC "-//W3C//DTD SVG 1.1//EN" "http://www.w3.org/Graphics/SVG/1.1/DTD/svg11.dtd">
<svg width="709" height="409" viewBox="0 0 709 409" style="fill:none;stroke:none;fill-rule:evenodd;clip-rule:evenodd;stroke-linecap:round;stroke-linejoin:round;stroke-miterlimit:1.5;" version="1.1" xmlns="http://www.w3.org/2000/svg" xmlns:xlink="http://www.w3.org/1999/xlink"><style id="fontImports">@import url("https://fonts.googleapis.com/css2?family=Roboto:wght@400;700&amp;display=block");</style><g id="items" style="isolation: isolate"><g id="blend" style="mix-blend-mode:multiply"><g id="g-root-ro_zk21ce5ldhcd-fill" data-item-order="-29232" data-item-id="ro_zk21ce5ldhcd" data-item-class="Shape Stroke Fill" data-item-index="none" data-renderer-id="0" transform="translate(291, 15)"><g id="ro_zk21ce5ldhcd-fill" stroke="none" fill="#f0f0f0"><g><path d="M 34 10L 154 10C 154 10 178 10 178 34L 178 160C 178 160 178 184 154 184L 34 184C 34 184 10 184 10 160L 10 34C 10 34 10 10 34 10"></path></g></g></g><g id="g-root-ro_909qoe5l7w97-fill" data-item-order="-12960" data-item-id="ro_909qoe5l7w97" data-item-class="Shape Stroke Fill" data-item-index="none" data-renderer-id="0" transform="translate(3, 3)"><g id="ro_909qoe5l7w97-fill" stroke="none" fill="#e6efff"><g><path d="M 22 10L 238 10C 238 10 250 10 250 22L 250 52C 250 52 250 64 238 64L 22 64C 22 64 10 64 10 52L 10 22C 10 22 10 10 22 10"></path></g></g></g><g id="g-root-ro_quo1fy5lhqfi-fill" data-item-order="-10368" data-item-id="ro_quo1fy5lhqfi" data-item-class="Shape Stroke Fill" data-item-index="none" data-renderer-id="0" transform="translate(279, 225)"><g id="ro_quo1fy5lhqfi-fill" stroke="none" fill="#fffce6"><g><path d="M 22 10L 190 10C 190 10 202 10 202 22L 202 52C 202 52 202 64 190 64L 22 64C 22 64 10 64 10 52L 10 22C 10 22 10 10 22 10"></path></g></g></g><g id="g-root-ro_1q9h4r25l7x1k-fill" data-item-order="-7776" data-item-id="ro_1q9h4r25l7x1k" data-item-class="Shape Stroke Fill" data-item-index="none" data-renderer-id="0" transform="translate(507, 3)"><g id="ro_1q9h4r25l7x1k-fill" stroke="none" fill="#e9fbf3"><g><path d="M 22 10L 142 10C 142 10 154 10 154 22L 154 52C 154 52 154 64 142 64L 22 64C 22 64 10 64 10 52L 10 22C 10 22 10 10 22 10"></path></g></g></g><g id="g-root-up_1upamvi5l7w9b-fill" data-item-order="0" data-item-id="up_1upamvi5l7w9b" data-item-class="Icon Stroke" data-item-index="none" data-renderer-id="0" transform="translate(519, 15)"></g><g id="g-root-cu_4kg8jy5l7x1g-fill" data-item-order="0" data-item-id="cu_4kg8jy5l7x1g" data-item-class="Curve Stroke ColorFillGray ColorStrokeGray" data-item-index="none" data-renderer-id="0" transform="translate(243, 30)"></g><g id="g-root-rota_1lqj2vi5ldi4k-fill" data-item-order="0" data-item-id="rota_1lqj2vi5ldi4k" data-item-class="Icon Stroke" data-item-index="none" data-renderer-id="0" transform="translate(351, 39)"></g><g id="g-root-cu_1upxaa65l7xn3-fill" data-item-order="0" data-item-id="cu_1upxaa65l7xn3" data-item-class="Curve Stroke ColorFillGray ColorStrokeGray" data-item-index="none" data-renderer-id="0" transform="translate(459, 30)"></g><g id="g-root-tx_features_8zn39q5l7uvi-fill" data-item-order="0" data-item-id="tx_features_8zn39q5l7uvi" data-item-class="Label Stroke" data-item-index="none" data-renderer-id="0" transform="translate(555, 18)"><g id="tx_features_8zn39q5l7uvi-fill" stroke="none" fill="#3bc482"><g><text style="font: 20px Roboto, sans-serif; white-space: pre;"><tspan x="13.31" y="34" dominant-baseline="ideographic">Features</tspan></text></g></g></g><g id="g-root-tx_jpeg_dju05q5lhoun-fill" data-item-order="0" data-item-id="tx_jpeg_dju05q5lhoun" data-item-class="Label Stroke" data-item-index="none" data-renderer-id="0" transform="translate(135, 69)"><g id="tx_jpeg_dju05q5lhoun-fill" stroke="none" fill="#484848"><g><text style="font: 20px Roboto, sans-serif; white-space: pre;"><tspan x="15.68" y="34" dominant-baseline="ideographic">JPEG</tspan></text></g></g></g><g id="g-root-cu_18jg8r25l7xmw-fill" data-item-order="0" data-item-id="cu_18jg8r25l7xmw" data-item-class="Curve Stroke ColorFillGray ColorStrokeGray" data-item-index="none" data-renderer-id="0" transform="translate(201, 57)"></g><g id="g-root-cu_1luwr4e5l7w1x-fill" data-item-order="0" data-item-id="cu_1luwr4e5l7w1x" data-item-class="Curve Stroke ColorFillGray ColorStrokeGray" data-item-index="none" data-renderer-id="0" transform="translate(201, 57)"></g><g id="g-root-cu_v8m7gu5l7w22-fill" data-item-order="0" data-item-id="cu_v8m7gu5l7w22" data-item-class="Curve Stroke ColorFillGray ColorStrokeGray" data-item-index="none" data-renderer-id="0" transform="translate(201, 57)"></g><g id="g-root-cu_hx5p3i5l7xn3-fill" data-item-order="0" data-item-id="cu_hx5p3i5l7xn3" data-item-class="Curve Stroke ColorFillGray ColorStrokeGray" data-item-index="none" data-renderer-id="0" transform="translate(531, 57)"></g><g id="g-root-cu_mcz77y5l7xmp-fill" data-item-order="0" data-item-id="cu_mcz77y5l7xmp" data-item-class="Curve Stroke ColorFillGray ColorStrokeGray" data-item-index="none" data-renderer-id="0" transform="translate(531, 57)"></g><g id="g-root-cu_qsspce5l7wuc-fill" data-item-order="0" data-item-id="cu_qsspce5l7wuc" data-item-class="Curve Stroke ColorFillGray ColorStrokeGray" data-item-index="none" data-renderer-id="0" transform="translate(531, 57)"></g><g id="g-root-tx_enhanced_13z9bv25lj4lj-fill" data-item-order="0" data-item-id="tx_enhanced_13z9bv25lj4lj" data-item-class="Label Stroke" data-item-index="none" data-renderer-id="0" transform="translate(327, 363)"><g id="tx_enhanced_13z9bv25lj4lj-fill" stroke="none" fill="#484848"><g><text style="font: 20px Roboto, sans-serif; white-space: pre;"><tspan x="16.98" y="34" dominant-baseline="ideographic">Enhanced Experience</tspan></text></g></g></g><g id="g-root-tx_easeofus_zs6gy65lhon6-fill" data-item-order="0" data-item-id="tx_easeofus_zs6gy65lhon6" data-item-class="Label Stroke" data-item-index="none" data-renderer-id="0" transform="translate(555, 69)"><g id="tx_easeofus_zs6gy65lhon6-fill" stroke="none" fill="#484848"><g><text style="font: 20px Roboto, sans-serif; white-space: pre;"><tspan x="17.36" y="34" dominant-baseline="ideographic">Ease of Use</tspan></text></g></g></g><g id="g-root-tx_png_4o6zwu5lhqf4-fill" data-item-order="0" data-item-id="tx_png_4o6zwu5lhqf4" data-item-class="Label Stroke" data-item-index="none" data-renderer-id="0" transform="translate(147, 105)"><g id="tx_png_4o6zwu5lhqf4-fill" stroke="none" fill="#484848"><g><text style="font: 20px Roboto, sans-serif; white-space: pre;"><tspan x="13.75" y="34" dominant-baseline="ideographic">PNG</tspan></text></g></g></g><g id="g-root-tx_imagefil_hrj2oe5ldhjf-fill" data-item-order="0" data-item-id="tx_imagefil_hrj2oe5ldhjf" data-item-class="Label Stroke" data-item-index="none" data-renderer-id="0" transform="translate(315, 93)"><g id="tx_imagefil_hrj2oe5ldhjf-fill" stroke="none" fill="#484848"><g><text style="font: 20px Roboto, sans-serif; white-space: pre;"><tspan x="21.73" y="34" dominant-baseline="ideographic">Image File </tspan><tspan x="17.72" y="58" dominant-baseline="ideographic">Conversion </tspan><tspan x="48.39" y="82" dominant-baseline="ideographic">Tool</tspan></text></g></g></g><g id="g-root-tx_efficien_dl2yby5lhr0r-fill" data-item-order="0" data-item-id="tx_efficien_dl2yby5lhr0r" data-item-class="Label Stroke" data-item-index="none" data-renderer-id="0" transform="translate(555, 105)"><g id="tx_efficien_dl2yby5lhr0r-fill" stroke="none" fill="#484848"><g><text style="font: 20px Roboto, sans-serif; white-space: pre;"><tspan x="15.34" y="34" dominant-baseline="ideographic">Efficiency</tspan></text></g></g></g><g id="g-root-tx_pdf_1hiu0cu5lhpft-fill" data-item-order="0" data-item-id="tx_pdf_1hiu0cu5lhpft" data-item-class="Label Stroke" data-item-index="none" data-renderer-id="0" transform="translate(147, 141)"><g id="tx_pdf_1hiu0cu5lhpft-fill" stroke="none" fill="#484848"><g><text style="font: 20px Roboto, sans-serif; white-space: pre;"><tspan x="15.61" y="34" dominant-baseline="ideographic">PDF</tspan></text></g></g></g><g id="g-root-tx_compatib_9bny5lj40c-fill" data-item-order="0" data-item-id="tx_compatib_9bny5lj40c" data-item-class="Label Stroke" data-item-index="none" data-renderer-id="0" transform="translate(555, 141)"><g id="tx_compatib_9bny5lj40c-fill" stroke="none" fill="#484848"><g><text style="font: 20px Roboto, sans-serif; white-space: pre;"><tspan x="17.39" y="34" dominant-baseline="ideographic">Compatibility</tspan></text></g></g></g><g id="g-root-cu_1qaq98u5l7v9m-fill" data-item-order="0" data-item-id="cu_1qaq98u5l7v9m" data-item-class="Curve Stroke ColorFillGray ColorStrokeGray" data-item-index="none" data-renderer-id="0" transform="translate(375, 189)"></g><g id="g-root-tx_supporte_v6qs7i5l7x1d-fill" data-item-order="0" data-item-id="tx_supporte_v6qs7i5l7x1d" data-item-class="Label Stroke" data-item-index="none" data-renderer-id="0" transform="translate(15, 18)"><g id="tx_supporte_v6qs7i5l7x1d-fill" stroke="none" fill="#4682e3"><g><text style="font: 20px Roboto, sans-serif; white-space: pre;"><tspan x="14.18" y="34" dominant-baseline="ideographic">Supported Formats</tspan></text></g></g></g><g id="g-root-1_zqb1ou5lhpmt-fill" data-item-order="0" data-item-id="1_zqb1ou5lhpmt" data-item-class="Icon Stroke" data-item-index="none" data-renderer-id="0" transform="translate(291, 237)"></g><g id="g-root-tx_userbene_1qcllce5lhpms-fill" data-item-order="0" data-item-id="tx_userbene_1qcllce5lhpms" data-item-class="Label Stroke" data-item-index="none" data-renderer-id="0" transform="translate(327, 240)"><g id="tx_userbene_1qcllce5lhpms-fill" stroke="none" fill="#e3cd09"><g><text style="font: 20px Roboto, sans-serif; white-space: pre;"><tspan x="16.9" y="34" dominant-baseline="ideographic">User Benefits</tspan></text></g></g></g><g id="g-root-cu_9255xq5l7w1y-fill" data-item-order="0" data-item-id="cu_9255xq5l7w1y" data-item-class="Curve Stroke ColorFillGray ColorStrokeGray" data-item-index="none" data-renderer-id="0" transform="translate(303, 279)"></g><g id="g-root-cu_9255xq5l7w20-fill" data-item-order="0" data-item-id="cu_9255xq5l7w20" data-item-class="Curve Stroke ColorFillGray ColorStrokeGray" data-item-index="none" data-renderer-id="0" transform="translate(303, 279)"></g><g id="g-root-cu_dhyo265l7v9n-fill" data-item-order="0" data-item-id="cu_dhyo265l7v9n" data-item-class="Curve Stroke ColorFillGray ColorStrokeGray" data-item-index="none" data-renderer-id="0" transform="translate(303, 279)"></g><g id="g-root-tx_convenie_1lpwv9q5lj5e5-fill" data-item-order="0" data-item-id="tx_convenie_1lpwv9q5lj5e5" data-item-class="Label Stroke" data-item-index="none" data-renderer-id="0" transform="translate(327, 291)"><g id="tx_convenie_1lpwv9q5lj5e5-fill" stroke="none" fill="#484848"><g><text style="font: 20px Roboto, sans-serif; white-space: pre;"><tspan x="12.9" y="34" dominant-baseline="ideographic">Convenience</tspan></text></g></g></g><g id="g-root-tx_quickcon_1ha3d5a5lj66e-fill" data-item-order="0" data-item-id="tx_quickcon_1ha3d5a5lj66e" data-item-class="Label Stroke" data-item-index="none" data-renderer-id="0" transform="translate(327, 327)"><g id="tx_quickcon_1ha3d5a5lj66e-fill" stroke="none" fill="#484848"><g><text style="font: 20px Roboto, sans-serif; white-space: pre;"><tspan x="16.41" y="34" dominant-baseline="ideographic">Quick Conversion</tspan></text></g></g></g><g id="g-root-pyra_hvwqxa5l7vgi-fill" data-item-order="0" data-item-id="pyra_hvwqxa5l7vgi" data-item-class="Icon Stroke" data-item-index="none" data-renderer-id="0" transform="translate(201, 15)"></g><g id="g-root-ro_zk21ce5ldhcd-stroke" data-item-order="-29232" data-item-id="ro_zk21ce5ldhcd" data-item-class="Shape Stroke Fill" data-item-index="none" data-renderer-id="0" transform="translate(291, 15)"><g id="ro_zk21ce5ldhcd-stroke" fill="none" stroke-linecap="round" stroke-linejoin="round" stroke-miterlimit="4" stroke="#484848" stroke-width="2"><g><path d="M 34 10L 154 10C 154 10 178 10 178 34L 178 160C 178 160 178 184 154 184L 34 184C 34 184 10 184 10 160L 10 34C 10 34 10 10 34 10"></path></g></g></g><g id="g-root-ro_909qoe5l7w97-stroke" data-item-order="-12960" data-item-id="ro_909qoe5l7w97" data-item-class="Shape Stroke Fill" data-item-index="none" data-renderer-id="0" transform="translate(3, 3)"><g id="ro_909qoe5l7w97-stroke" fill="none" stroke-linecap="round" stroke-linejoin="round" stroke-miterlimit="4" stroke="#4682e3" stroke-width="2"><g><path d="M 22 10L 238 10C 238 10 250 10 250 22L 250 52C 250 52 250 64 238 64L 22 64C 22 64 10 64 10 52L 10 22C 10 22 10 10 22 10"></path></g></g></g><g id="g-root-ro_quo1fy5lhqfi-stroke" data-item-order="-10368" data-item-id="ro_quo1fy5lhqfi" data-item-class="Shape Stroke Fill" data-item-index="none" data-renderer-id="0" transform="translate(279, 225)"><g id="ro_quo1fy5lhqfi-stroke" fill="none" stroke-linecap="round" stroke-linejoin="round" stroke-miterlimit="4" stroke="#e3cd09" stroke-width="2"><g><path d="M 22 10L 190 10C 190 10 202 10 202 22L 202 52C 202 52 202 64 190 64L 22 64C 22 64 10 64 10 52L 10 22C 10 22 10 10 22 10"></path></g></g></g><g id="g-root-ro_1q9h4r25l7x1k-stroke" data-item-order="-7776" data-item-id="ro_1q9h4r25l7x1k" data-item-class="Shape Stroke Fill" data-item-index="none" data-renderer-id="0" transform="translate(507, 3)"><g id="ro_1q9h4r25l7x1k-stroke" fill="none" stroke-linecap="round" stroke-linejoin="round" stroke-miterlimit="4" stroke="#3bc482" stroke-width="2"><g><path d="M 22 10L 142 10C 142 10 154 10 154 22L 154 52C 154 52 154 64 142 64L 22 64C 22 64 10 64 10 52L 10 22C 10 22 10 10 22 10"></path></g></g></g><g id="g-root-up_1upamvi5l7w9b-stroke" data-item-order="0" data-item-id="up_1upamvi5l7w9b" data-item-class="Icon Stroke" data-item-index="none" data-renderer-id="0" transform="translate(519, 15)"><g id="up_1upamvi5l7w9b-stroke" fill="none" stroke-linecap="round" stroke-linejoin="round" stroke-miterlimit="4" stroke="#3bc482" stroke-width="2"><g><path d="M 11.071428 31.749998L 24.25 18.571428C 24.444427 18.364262 24.715885 18.246746 24.999998 18.246746C 25.284111 18.246746 25.555571 18.364262 25.749998 18.571428L 38.92857 31.749998"></path></g></g></g><g id="g-root-cu_4kg8jy5l7x1g-stroke" data-item-order="0" data-item-id="cu_4kg8jy5l7x1g" data-item-class="Curve Stroke ColorFillGray ColorStrokeGray" data-item-index="none" data-renderer-id="0" transform="translate(243, 30)"><g id="cu_4kg8jy5l7x1g-stroke" fill="none" stroke-linecap="round" stroke-linejoin="round" stroke-miterlimit="4" stroke="#888888" stroke-width="2" stroke-dasharray="5.0, 7.0"><g><path d="M 58 53L 55 53L 54.9 53C 43.357252 53.000001 34.000002 43.642752 34.000002 32.1L 34 32L 34 30.9C 33.999998 19.357248 24.64275 10 13.1 10L 13 10L 10 10"></path></g></g></g><g id="g-root-rota_1lqj2vi5ldi4k-stroke" data-item-order="0" data-item-id="rota_1lqj2vi5ldi4k" data-item-class="Icon Stroke" data-item-index="none" data-renderer-id="0" transform="translate(351, 39)"><g id="rota_1lqj2vi5ldi4k-stroke" fill="none" stroke-linecap="round" stroke-linejoin="round" stroke-miterlimit="4" stroke="#484848" stroke-width="2"><g><path d="M 24 18L 24 44L 50 44M 18 24L 44 24L 44 50M 42.549999 19L 38.549999 15L 42.549999 11M 45.424 15.98C 43.534241 15.328475 41.548912 14.997249 39.549999 15L 38.549999 15M 49.577999 18.052C 50.62048 18.749126 51.587086 19.553514 52.462002 20.452M 55.771999 25.200001C 56.292942 26.278078 56.704338 27.405733 57 28.566M 25.450001 49L 29.450001 53L 25.450001 57M 22.576 52.02C 24.465755 52.671524 26.451086 53.00275 28.449999 53L 29.450001 53M 18.422001 49.948002C 17.37952 49.250874 16.412914 48.446487 15.538 47.548M 12.228 42.799999C 11.707058 41.72192 11.295662 40.594269 11 39.433998"></path></g></g></g><g id="g-root-cu_1upxaa65l7xn3-stroke" data-item-order="0" data-item-id="cu_1upxaa65l7xn3" data-item-class="Curve Stroke ColorFillGray ColorStrokeGray" data-item-index="none" data-renderer-id="0" transform="translate(459, 30)"><g id="cu_1upxaa65l7xn3-stroke" fill="none" stroke-linecap="round" stroke-linejoin="round" stroke-miterlimit="4" stroke="#888888" stroke-width="2" stroke-dasharray="5.0, 7.0"><g><path d="M 10 53L 13 53L 13.1 53C 24.642753 52.999998 34.000001 43.642749 34 32.099998L 34 32L 34 30.9C 33.999999 19.357249 43.357248 10.000001 54.899999 10.000002L 55 10L 58 10"></path></g></g></g><g id="g-root-tx_features_8zn39q5l7uvi-stroke" data-item-order="0" data-item-id="tx_features_8zn39q5l7uvi" data-item-class="Label Stroke" data-item-index="none" data-renderer-id="0" transform="translate(555, 18)"></g><g id="g-root-tx_jpeg_dju05q5lhoun-stroke" data-item-order="0" data-item-id="tx_jpeg_dju05q5lhoun" data-item-class="Label Stroke" data-item-index="none" data-renderer-id="0" transform="translate(135, 69)"></g><g id="g-root-cu_18jg8r25l7xmw-stroke" data-item-order="0" data-item-id="cu_18jg8r25l7xmw" data-item-class="Curve Stroke ColorFillGray ColorStrokeGray" data-item-index="none" data-renderer-id="0" transform="translate(201, 57)"><g id="cu_18jg8r25l7xmw-stroke" fill="none" stroke-linecap="round" stroke-linejoin="round" stroke-miterlimit="4" stroke="#888888" stroke-width="2" stroke-dasharray="5.0, 7.0"><g><path d="M 28 10L 28 40L 28 70L 19 70L 10 70"></path></g></g></g><g id="g-root-cu_1luwr4e5l7w1x-stroke" data-item-order="0" data-item-id="cu_1luwr4e5l7w1x" data-item-class="Curve Stroke ColorFillGray ColorStrokeGray" data-item-index="none" data-renderer-id="0" transform="translate(201, 57)"><g id="cu_1luwr4e5l7w1x-stroke" fill="none" stroke-linecap="round" stroke-linejoin="round" stroke-miterlimit="4" stroke="#888888" stroke-width="2" stroke-dasharray="5.0, 7.0"><g><path d="M 28 10L 28 22L 28 34L 19 34L 10 34"></path></g></g></g><g id="g-root-cu_v8m7gu5l7w22-stroke" data-item-order="0" data-item-id="cu_v8m7gu5l7w22" data-item-class="Curve Stroke ColorFillGray ColorStrokeGray" data-item-index="none" data-renderer-id="0" transform="translate(201, 57)"><g id="cu_v8m7gu5l7w22-stroke" fill="none" stroke-linecap="round" stroke-linejoin="round" stroke-miterlimit="4" stroke="#888888" stroke-width="2" stroke-dasharray="5.0, 7.0"><g><path d="M 28 10L 28 22L 28 94C 28.000002 100.627415 22.627419 105.999998 16.000002 105.999998L 15.9 106L 10 106"></path></g></g></g><g id="g-root-cu_hx5p3i5l7xn3-stroke" data-item-order="0" data-item-id="cu_hx5p3i5l7xn3" data-item-class="Curve Stroke ColorFillGray ColorStrokeGray" data-item-index="none" data-renderer-id="0" transform="translate(531, 57)"><g id="cu_hx5p3i5l7xn3-stroke" fill="none" stroke-linecap="round" stroke-linejoin="round" stroke-miterlimit="4" stroke="#888888" stroke-width="2" stroke-dasharray="5.0, 7.0"><g><path d="M 10 10L 10 40L 10 70L 19 70L 28 70"></path></g></g></g><g id="g-root-cu_mcz77y5l7xmp-stroke" data-item-order="0" data-item-id="cu_mcz77y5l7xmp" data-item-class="Curve Stroke ColorFillGray ColorStrokeGray" data-item-index="none" data-renderer-id="0" transform="translate(531, 57)"><g id="cu_mcz77y5l7xmp-stroke" fill="none" stroke-linecap="round" stroke-linejoin="round" stroke-miterlimit="4" stroke="#888888" stroke-width="2" stroke-dasharray="5.0, 7.0"><g><path d="M 10 10L 10 22L 10 94C 10.000004 100.627423 15.372587 106.000006 22.000005 106.000005L 22.1 106L 28 106"></path></g></g></g><g id="g-root-cu_qsspce5l7wuc-stroke" data-item-order="0" data-item-id="cu_qsspce5l7wuc" data-item-class="Curve Stroke ColorFillGray ColorStrokeGray" data-item-index="none" data-renderer-id="0" transform="translate(531, 57)"><g id="cu_qsspce5l7wuc-stroke" fill="none" stroke-linecap="round" stroke-linejoin="round" stroke-miterlimit="4" stroke="#888888" stroke-width="2" stroke-dasharray="5.0, 7.0"><g><path d="M 10 10L 10 22L 10 34L 19 34L 28 34"></path></g></g></g><g id="g-root-tx_enhanced_13z9bv25lj4lj-stroke" data-item-order="0" data-item-id="tx_enhanced_13z9bv25lj4lj" data-item-class="Label Stroke" data-item-index="none" data-renderer-id="0" transform="translate(327, 363)"></g><g id="g-root-tx_easeofus_zs6gy65lhon6-stroke" data-item-order="0" data-item-id="tx_easeofus_zs6gy65lhon6" data-item-class="Label Stroke" data-item-index="none" data-renderer-id="0" transform="translate(555, 69)"></g><g id="g-root-tx_png_4o6zwu5lhqf4-stroke" data-item-order="0" data-item-id="tx_png_4o6zwu5lhqf4" data-item-class="Label Stroke" data-item-index="none" data-renderer-id="0" transform="translate(147, 105)"></g><g id="g-root-tx_imagefil_hrj2oe5ldhjf-stroke" data-item-order="0" data-item-id="tx_imagefil_hrj2oe5ldhjf" data-item-class="Label Stroke" data-item-index="none" data-renderer-id="0" transform="translate(315, 93)"></g><g id="g-root-tx_efficien_dl2yby5lhr0r-stroke" data-item-order="0" data-item-id="tx_efficien_dl2yby5lhr0r" data-item-class="Label Stroke" data-item-index="none" data-renderer-id="0" transform="translate(555, 105)"></g><g id="g-root-tx_pdf_1hiu0cu5lhpft-stroke" data-item-order="0" data-item-id="tx_pdf_1hiu0cu5lhpft" data-item-class="Label Stroke" data-item-index="none" data-renderer-id="0" transform="translate(147, 141)"></g><g id="g-root-tx_compatib_9bny5lj40c-stroke" data-item-order="0" data-item-id="tx_compatib_9bny5lj40c" data-item-class="Label Stroke" data-item-index="none" data-renderer-id="0" transform="translate(555, 141)"></g><g id="g-root-cu_1qaq98u5l7v9m-stroke" data-item-order="0" data-item-id="cu_1qaq98u5l7v9m" data-item-class="Curve Stroke ColorFillGray ColorStrokeGray" data-item-index="none" data-renderer-id="0" transform="translate(375, 189)"><g id="cu_1qaq98u5l7v9m-stroke" fill="none" stroke-linecap="round" stroke-linejoin="round" stroke-miterlimit="4" stroke="#888888" stroke-width="2" stroke-dasharray="5.0, 7.0"><g><path d="M 10 10L 10 28L 10 46"></path></g></g></g><g id="g-root-tx_supporte_v6qs7i5l7x1d-stroke" data-item-order="0" data-item-id="tx_supporte_v6qs7i5l7x1d" data-item-class="Label Stroke" data-item-index="none" data-renderer-id="0" transform="translate(15, 18)"></g><g id="g-root-1_zqb1ou5lhpmt-stroke" data-item-order="0" data-item-id="1_zqb1ou5lhpmt" data-item-class="Icon Stroke" data-item-index="none" data-renderer-id="0" transform="translate(291, 237)"><g id="1_zqb1ou5lhpmt-stroke" fill="none" stroke-linecap="round" stroke-linejoin="round" stroke-miterlimit="4" stroke="#e3cd09" stroke-width="2"><g><path d="M 25 14.375L 25 37.5M 11.25 30L 15.625 20.668751L 20 30M 15.625 34.375C 16.794004 34.404114 17.923801 33.952538 18.750669 33.125671C 19.577538 32.298801 20.029118 31.169004 20 29.999998L 11.25 30C 11.220882 31.169004 11.672462 32.298801 12.499331 33.125671C 13.326199 33.952538 14.455995 34.404114 15.625 34.375ZM 38.75 22.5L 34.375 13.016251L 30 22.5M 34.375 26.875C 33.205994 26.904118 32.076195 26.452538 31.249331 25.625669C 30.422461 24.798801 29.970882 23.669004 29.999998 22.5L 38.75 22.5C 38.779114 23.669004 38.327538 24.798801 37.500671 25.625669C 36.673801 26.452538 35.544006 26.904118 34.375 26.875ZM 26.8675 16.11875L 35.625 12.5M 13.0575 21.706249L 26.8675 16.11875M 19.375 37.5L 30.625 37.5"></path></g></g></g><g id="g-root-tx_userbene_1qcllce5lhpms-stroke" data-item-order="0" data-item-id="tx_userbene_1qcllce5lhpms" data-item-class="Label Stroke" data-item-index="none" data-renderer-id="0" transform="translate(327, 240)"></g><g id="g-root-cu_9255xq5l7w1y-stroke" data-item-order="0" data-item-id="cu_9255xq5l7w1y" data-item-class="Curve Stroke ColorFillGray ColorStrokeGray" data-item-index="none" data-renderer-id="0" transform="translate(303, 279)"><g id="cu_9255xq5l7w1y-stroke" fill="none" stroke-linecap="round" stroke-linejoin="round" stroke-miterlimit="4" stroke="#888888" stroke-width="2" stroke-dasharray="5.0, 7.0"><g><path d="M 10 10L 10 40L 10 70L 19 70L 28 70"></path></g></g></g><g id="g-root-cu_9255xq5l7w20-stroke" data-item-order="0" data-item-id="cu_9255xq5l7w20" data-item-class="Curve Stroke ColorFillGray ColorStrokeGray" data-item-index="none" data-renderer-id="0" transform="translate(303, 279)"><g id="cu_9255xq5l7w20-stroke" fill="none" stroke-linecap="round" stroke-linejoin="round" stroke-miterlimit="4" stroke="#888888" stroke-width="2" stroke-dasharray="5.0, 7.0"><g><path d="M 10 10L 10 22L 10 94C 10.000004 100.627423 15.372587 106.000006 22.000005 106.000005L 22.1 106L 28 106"></path></g></g></g><g id="g-root-cu_dhyo265l7v9n-stroke" data-item-order="0" data-item-id="cu_dhyo265l7v9n" data-item-class="Curve Stroke ColorFillGray ColorStrokeGray" data-item-index="none" data-renderer-id="0" transform="translate(303, 279)"><g id="cu_dhyo265l7v9n-stroke" fill="none" stroke-linecap="round" stroke-linejoin="round" stroke-miterlimit="4" stroke="#888888" stroke-width="2" stroke-dasharray="5.0, 7.0"><g><path d="M 10 10L 10 22L 10 34L 19 34L 28 34"></path></g></g></g><g id="g-root-tx_convenie_1lpwv9q5lj5e5-stroke" data-item-order="0" data-item-id="tx_convenie_1lpwv9q5lj5e5" data-item-class="Label Stroke" data-item-index="none" data-renderer-id="0" transform="translate(327, 291)"></g><g id="g-root-tx_quickcon_1ha3d5a5lj66e-stroke" data-item-order="0" data-item-id="tx_quickcon_1ha3d5a5lj66e" data-item-class="Label Stroke" data-item-index="none" data-renderer-id="0" transform="translate(327, 327)"></g><g id="g-root-pyra_hvwqxa5l7vgi-stroke" data-item-order="0" data-item-id="pyra_hvwqxa5l7vgi" data-item-class="Icon Stroke" data-item-index="none" data-renderer-id="0" transform="translate(201, 15)"><g id="pyra_hvwqxa5l7vgi-stroke" fill="none" stroke-linecap="round" stroke-linejoin="round" stroke-miterlimit="4" stroke="#4682e3" stroke-width="2"><g><path d="M 36.508751 15.625C 36.743187 15.859366 36.874928 16.177258 36.875 16.508749L 36.875 38.125C 36.875 38.815353 36.315353 39.375 35.625 39.375L 14.375 39.375C 13.684644 39.375 13.125 38.815353 13.125 38.125L 13.125 11.875C 13.125 11.184644 13.684644 10.625 14.375 10.625L 30.991249 10.625C 31.322744 10.625071 31.640635 10.756813 31.875 10.99125ZM 19.375 31.875C 19.375 33.255714 21.893398 34.375 25 34.375C 28.106602 34.375 30.625 33.255714 30.625 31.875C 30.625 30.494287 28.106602 29.375 25 29.375C 21.893398 29.375 19.375 30.494287 19.375 31.875ZM 19.77 30.952499L 24.424999 20.09C 24.52318 19.859529 24.749487 19.709949 25 19.709949C 25.250513 19.709949 25.47682 19.859529 25.575001 20.09L 30.23 30.952499"></path></g></g></g></g></g></svg>