<?xml version="1.0" encoding="utf-8" standalone="yes"?>
<!DOCTYPE svg PUBLIC "-//W3C//DTD SVG 1.1//EN" "http://www.w3.org/Graphics/SVG/1.1/DTD/svg11.dtd">
<svg width="650" height="516" viewBox="0 0 650 516" style="fill:none;stroke:none;fill-rule:evenodd;clip-rule:evenodd;stroke-linecap:round;stroke-linejoin:round;stroke-miterlimit:1.5;" version="1.1" xmlns="http://www.w3.org/2000/svg" xmlns:xlink="http://www.w3.org/1999/xlink"><style id="fontImports">@import url("https://fonts.googleapis.com/css2?family=Roboto:wght@400;700&amp;display=block");</style><g id="items" style="isolation: isolate"><g id="blend" style="mix-blend-mode:multiply"><g id="g-root--1.cu_sy_18lxyqhn2tj43-fill" data-item-order="-119803" data-item-id="-1.cu_sy_18lxyqhn2tj43" data-item-class="ScenePart Stroke ColorStrokeBlack" data-item-index="-1" data-renderer-id="0" transform="translate(3, 277.9959716796875)"></g><g id="g-root-6.cr-big_cr_dbpqu1n2uxhf-fill" data-item-order="-119802" data-item-id="6.cr-big_cr_dbpqu1n2uxhf" data-item-class="Shape Stroke Fill ScenePart Indexed ColorStrokeBlack" data-item-index="6" data-renderer-id="0" transform="translate(519, 313.99798583984375)"><g id="6.cr-big_cr_dbpqu1n2uxhf-fill" stroke="none" fill="#dd8433"><g><path d="M 10 46C 10 65.882251 26.117749 82 46 82C 65.882251 82 82 65.882251 82 46C 82 26.117749 65.882251 10 46 10C 26.117749 10 10 26.117749 10 46"></path></g></g></g><g id="g-root-6.cu-smallCircle_sy_4g2ql5n2uya4-fill" data-item-order="-119799" data-item-id="6.cu-smallCircle_sy_4g2ql5n2uya4" data-item-class="ScenePart Indexed Stroke ColorStrokeBlack" data-item-index="6" data-renderer-id="0" transform="translate(552, 287.00201416015625)"></g><g id="g-root-6.ln_ln_98gpn2uz2d-fill" data-item-order="-119797" data-item-id="6.ln_ln_98gpn2uz2d" data-item-class="Curve Stroke ScenePart Indexed ColorStrokeBlack" data-item-index="6" data-renderer-id="0" transform="translate(555, 293.00201416015625)"></g><g id="g-root-5.cr-big_cr_qwjdi1n2tkhs-fill" data-item-order="-119796" data-item-id="5.cr-big_cr_qwjdi1n2tkhs" data-item-class="Shape Stroke Fill ScenePart Indexed ColorStrokeBlack" data-item-index="5" data-renderer-id="0" transform="translate(423, 194)"><g id="5.cr-big_cr_qwjdi1n2tkhs-fill" stroke="none" fill="#e3cd09"><g><path d="M 10 46C 10 65.882251 26.117749 82 46 82C 65.882251 82 82 65.882251 82 46C 82 26.117749 65.882251 10 46 10C 26.117749 10 10 26.117749 10 46"></path></g></g></g><g id="g-root-5.cu-smallCircle_sy_i0wd95n2tlah-fill" data-item-order="-119793" data-item-id="5.cu-smallCircle_sy_i0wd95n2tlah" data-item-class="ScenePart Indexed Stroke ColorStrokeBlack" data-item-index="5" data-renderer-id="0" transform="translate(456, 286.9959716796875)"></g><g id="g-root-5.ln_ln_dbpqu1n2uxhe-fill" data-item-order="-119791" data-item-id="5.ln_ln_dbpqu1n2uxhe" data-item-class="Curve Stroke ScenePart Indexed ColorStrokeBlack" data-item-index="5" data-renderer-id="0" transform="translate(459, 266)"></g><g id="g-root-4.cr-big_cr_zs6dqxn2tix9-fill" data-item-order="-119790" data-item-id="4.cr-big_cr_zs6dqxn2tix9" data-item-class="Shape Stroke Fill ScenePart Indexed ColorStrokeBlack" data-item-index="4" data-renderer-id="0" transform="translate(327, 313.99798583984375)"><g id="4.cr-big_cr_zs6dqxn2tix9-fill" stroke="none" fill="#93c131"><g><path d="M 10 46C 10 65.882251 26.117749 82 46 82C 65.882251 82 82 65.882251 82 46C 82 26.117749 65.882251 10 46 10C 26.117749 10 10 26.117749 10 46"></path></g></g></g><g id="g-root-4.cu-smallCircle_sy_vccvmhn2tjpi-fill" data-item-order="-119787" data-item-id="4.cu-smallCircle_sy_vccvmhn2tjpi" data-item-class="ScenePart Indexed Stroke ColorStrokeBlack" data-item-index="4" data-renderer-id="0" transform="translate(360, 287.00201416015625)"></g><g id="g-root-4.ln_ln_mgpvdln2tki7-fill" data-item-order="-119785" data-item-id="4.ln_ln_mgpvdln2tki7" data-item-class="Curve Stroke ScenePart Indexed ColorStrokeBlack" data-item-index="4" data-renderer-id="0" transform="translate(363, 293.00201416015625)"></g><g id="g-root-3.cr-big_cr_1d30f15n2tki2-fill" data-item-order="-119784" data-item-id="3.cr-big_cr_1d30f15n2tki2" data-item-class="Shape Stroke Fill ScenePart Indexed ColorStrokeBlack" data-item-index="3" data-renderer-id="0" transform="translate(231, 194)"><g id="3.cr-big_cr_1d30f15n2tki2-fill" stroke="none" fill="#3bc482"><g><path d="M 10 46C 10 65.882251 26.117749 82 46 82C 65.882251 82 82 65.882251 82 46C 82 26.117749 65.882251 10 46 10C 26.117749 10 10 26.117749 10 46"></path></g></g></g><g id="g-root-3.cu-smallCircle_sy_18n6wwpn2tlab-fill" data-item-order="-119781" data-item-id="3.cu-smallCircle_sy_18n6wwpn2tlab" data-item-class="ScenePart Indexed Stroke ColorStrokeBlack" data-item-index="3" data-renderer-id="0" transform="translate(264, 286.9959716796875)"></g><g id="g-root-3.ln_ln_zs6dqxn2tix8-fill" data-item-order="-119779" data-item-id="3.ln_ln_zs6dqxn2tix8" data-item-class="Curve Stroke ScenePart Indexed ColorStrokeBlack" data-item-index="3" data-renderer-id="0" transform="translate(267, 266)"></g><g id="g-root-2.cr-big_cr_1utnyftn2tlan-fill" data-item-order="-119778" data-item-id="2.cr-big_cr_1utnyftn2tlan" data-item-class="Shape Stroke Fill ScenePart Indexed ColorStrokeBlack" data-item-index="2" data-renderer-id="0" transform="translate(135, 314)"><g id="2.cr-big_cr_1utnyftn2tlan-fill" stroke="none" fill="#17b0e3"><g><path d="M 10 46C 10 65.882251 26.117749 82 46 82C 65.882251 82 82 65.882251 82 46C 82 26.117749 65.882251 10 46 10C 26.117749 10 10 26.117749 10 46"></path></g></g></g><g id="g-root-2.cu-smallCircle_sy_1qegxehn2tix4-fill" data-item-order="-119775" data-item-id="2.cu-smallCircle_sy_1qegxehn2tix4" data-item-class="ScenePart Indexed Stroke ColorStrokeBlack" data-item-index="2" data-renderer-id="0" transform="translate(168, 287.00201416015625)"></g><g id="g-root-2.ln_ln_1lynfa1n2tjpd-fill" data-item-order="-119773" data-item-id="2.ln_ln_1lynfa1n2tjpd" data-item-class="Curve Stroke ScenePart Indexed ColorStrokeBlack" data-item-index="2" data-renderer-id="0" transform="translate(171, 293.00201416015625)"></g><g id="g-root-1.cr-big_cr_vahgd5n2tkp0-fill" data-item-order="-119772" data-item-id="1.cr-big_cr_vahgd5n2tkp0" data-item-class="Shape Stroke Fill ScenePart Indexed Indexed_1 ColorStrokeBlack" data-item-index="1" data-renderer-id="0" transform="translate(39, 194)"><g id="1.cr-big_cr_vahgd5n2tkp0-fill" stroke="none" fill="#4682e3"><g><path d="M 10 46C 10 65.882251 26.117749 82 46 82C 65.882251 82 82 65.882251 82 46C 82 26.117749 65.882251 10 46 10C 26.117749 10 10 26.117749 10 46"></path></g></g></g><g id="g-root-1.cu-smallCircle_sy_hznf2xn2tj45-fill" data-item-order="-119769" data-item-id="1.cu-smallCircle_sy_hznf2xn2tj45" data-item-class="ScenePart Indexed Indexed_1 Stroke ColorStrokeBlack" data-item-index="1" data-renderer-id="0" transform="translate(72, 286.9959716796875)"></g><g id="g-root-1.ln_ln_940eu1n2tjwu-fill" data-item-order="-119767" data-item-id="1.ln_ln_940eu1n2tjwu" data-item-class="Curve Stroke ScenePart Indexed Indexed_1 ColorStrokeBlack" data-item-index="1" data-renderer-id="0" transform="translate(75, 266)"></g><g id="g-root-tx_enhancea_hss74pn2uyva-fill" data-item-order="0" data-item-id="tx_enhancea_hss74pn2uyva" data-item-class="Label Stroke SceneTarget Indexed ColorStrokeBlack" data-item-index="6" data-renderer-id="0" transform="translate(483, 398)"><g id="tx_enhancea_hss74pn2uyva-fill" stroke="none" fill="#666666"><g><text style="font: 20px Roboto, sans-serif; white-space: pre;"><tspan x="42.03" y="34" dominant-baseline="ideographic">Enhance </tspan><tspan x="13.76" y="58" dominant-baseline="ideographic">accessibility of </tspan><tspan x="46.9" y="82" dominant-baseline="ideographic">the text</tspan></text></g></g></g><g id="g-root-onli_1d2e7fdn2fhfr-fill" data-item-order="0" data-item-id="onli_1d2e7fdn2fhfr" data-item-class="Icon Stroke SceneTarget Indexed InsideFill InsideColorFill ColorStrokeBlack" data-item-index="5" data-renderer-id="0" transform="translate(435, 206)"></g><g id="g-root-tran_mg3nrtn2fhft-fill" data-item-order="0" data-item-id="tran_mg3nrtn2fhft" data-item-class="Icon Stroke SceneTarget Indexed InsideFill InsideColorFill ColorStrokeBlack" data-item-index="3" data-renderer-id="0" transform="translate(243, 206)"></g><g id="g-root-sear_1qf3nyxn2fi0z-fill" data-item-order="0" data-item-id="sear_1qf3nyxn2fi0z" data-item-class="Icon Stroke SceneTarget Indexed Indexed_1 InsideFill InsideColorFill ColorStrokeBlack" data-item-index="1" data-renderer-id="0" transform="translate(51, 206)"></g><g id="g-root-tx_digitize_1q7lpg9n2uyo7-fill" data-item-order="0" data-item-id="tx_digitize_1q7lpg9n2uyo7" data-item-class="Label Stroke SceneTarget Indexed ColorStrokeBlack" data-item-index="5" data-renderer-id="0" transform="translate(387, 134)"><g id="tx_digitize_1q7lpg9n2uyo7-fill" stroke="none" fill="#666666"><g><text style="font: 20px Roboto, sans-serif; white-space: pre;"><tspan x="13.74" y="34" dominant-baseline="ideographic">Digitize printed </tspan><tspan x="38.65" y="58" dominant-baseline="ideographic">materials</tspan></text></g></g></g><g id="g-root-tx_convertv_1upamu1n2uww9-fill" data-item-order="0" data-item-id="tx_convertv_1upamu1n2uww9" data-item-class="Label Stroke SceneTarget Indexed ColorStrokeBlack" data-item-index="3" data-renderer-id="0" transform="translate(195, 86)"><g id="tx_convertv_1upamu1n2uww9-fill" stroke="none" fill="#666666"><g><text style="font: 20px Roboto, sans-serif; white-space: pre;"><tspan x="16.53" y="34" dominant-baseline="ideographic">Convert visual </tspan><tspan x="27.9" y="58" dominant-baseline="ideographic">information </tspan><tspan x="21.78" y="82" dominant-baseline="ideographic">into readable </tspan><tspan x="62.73" y="106" dominant-baseline="ideographic">text</tspan></text></g></g></g><g id="g-root-tx_useocrso_mbq2opn2uz9f-fill" data-item-order="0" data-item-id="tx_useocrso_mbq2opn2uz9f" data-item-class="Label Stroke SceneTarget Indexed Indexed_1 ColorStrokeBlack" data-item-index="1" data-renderer-id="0" transform="translate(15, 86)"><g id="tx_useocrso_mbq2opn2uz9f-fill" stroke="none" fill="#666666"><g><text style="font: 20px Roboto, sans-serif; white-space: pre;"><tspan x="28.57" y="34" dominant-baseline="ideographic">Use OCR </tspan><tspan x="17.03" y="58" dominant-baseline="ideographic">software to </tspan><tspan x="17.24" y="82" dominant-baseline="ideographic">analyze the </tspan><tspan x="39.99" y="106" dominant-baseline="ideographic">image</tspan></text></g></g></g><g id="g-root-2_94n5ehn2fj0q-fill" data-item-order="0" data-item-id="2_94n5ehn2fj0q" data-item-class="Icon Stroke SceneTarget Indexed InsideFill InsideColorFill ColorStrokeBlack" data-item-index="2" data-renderer-id="0" transform="translate(147, 326)"></g><g id="g-root-3_zqxp21n2fj0o-fill" data-item-order="0" data-item-id="3_zqxp21n2fj0o" data-item-class="Icon Stroke SceneTarget Indexed InsideFill InsideColorFill ColorStrokeBlack" data-item-index="4" data-renderer-id="0" transform="translate(339, 326)"></g><g id="g-root-alig_1qd88pln2fj0m-fill" data-item-order="0" data-item-id="alig_1qd88pln2fj0m" data-item-class="Icon Stroke SceneTarget Indexed InsideFill InsideColorFill ColorStrokeBlack" data-item-index="6" data-renderer-id="0" transform="translate(531, 326)"></g><g id="g-root-tx_identify_143036hn2uwwa-fill" data-item-order="0" data-item-id="tx_identify_143036hn2uwwa" data-item-class="Label Stroke SceneTarget Indexed ColorStrokeBlack" data-item-index="2" data-renderer-id="0" transform="translate(99, 398)"><g id="tx_identify_143036hn2uwwa-fill" stroke="none" fill="#666666"><g><text style="font: 20px Roboto, sans-serif; white-space: pre;"><tspan x="47.03" y="34" dominant-baseline="ideographic">Identify </tspan><tspan x="13.89" y="58" dominant-baseline="ideographic">characters and </tspan><tspan x="25.83" y="82" dominant-baseline="ideographic">words in the </tspan><tspan x="52.57" y="106" dominant-baseline="ideographic">image</tspan></text></g></g></g><g id="g-root-tx_accessan_18gy61ln2uxvk-fill" data-item-order="0" data-item-id="tx_accessan_18gy61ln2uxvk" data-item-class="Label Stroke SceneTarget Indexed ColorStrokeBlack" data-item-index="4" data-renderer-id="0" transform="translate(297, 398)"><g id="tx_accessan_18gy61ln2uxvk-fill" stroke="none" fill="#666666"><g><text style="font: 20px Roboto, sans-serif; white-space: pre;"><tspan x="24.33" y="34" dominant-baseline="ideographic">Access and </tspan><tspan x="42.83" y="58" dominant-baseline="ideographic">edit the </tspan><tspan x="15.15" y="82" dominant-baseline="ideographic">extracted text</tspan></text></g></g></g><g id="g-root-tx_extractt_5915ln2uyh8-fill" data-item-order="0" data-item-id="tx_extractt_5915ln2uyh8" data-item-class="Label Stroke SceneTarget SceneTitle ColorStrokeBlack" data-item-index="none" data-renderer-id="0" transform="translate(201, 2)"><g id="tx_extractt_5915ln2uyh8-fill" stroke="none" fill="#666666"><g><text style="font: 20px Roboto, sans-serif; white-space: pre;"><tspan x="12.51" y="34" dominant-baseline="ideographic">Extract Text from Images</tspan></text></g></g></g><g id="g-root--1.cu_sy_18lxyqhn2tj43-stroke" data-item-order="-119803" data-item-id="-1.cu_sy_18lxyqhn2tj43" data-item-class="ScenePart Stroke ColorStrokeBlack" data-item-index="-1" data-renderer-id="0" transform="translate(3, 277.9959716796875)"><g id="-1.cu_sy_18lxyqhn2tj43-stroke" fill="none" stroke-linecap="round" stroke-linejoin="round" stroke-miterlimit="4" stroke="#666666" stroke-width="2"><g><path d="M 622 33.999998L 634 21.991998L 622.016 9.999998M 469 21.999998C 469 21.999998 554.878 21.999998 559 21.999998M 10 21.999998C 10 21.999998 75.837 21.999998 78.998 21.999998M 84.998 21.999998C 84.998 21.999998 170.876 21.999998 174.998 21.999998M 181 21.999998C 181 21.999998 266.878 21.999998 271 21.999998M 277 21.999998C 277 21.999998 362.878 21.999998 367 21.999998M 373 21.999998C 373 21.999998 458.878 21.999998 463 21.999998M 565 21.999998C 565 21.999998 630.84 21.999998 634 21.999998"></path></g></g></g><g id="g-root-6.cr-big_cr_dbpqu1n2uxhf-stroke" data-item-order="-119802" data-item-id="6.cr-big_cr_dbpqu1n2uxhf" data-item-class="Shape Stroke Fill ScenePart Indexed ColorStrokeBlack" data-item-index="6" data-renderer-id="0" transform="translate(519, 313.99798583984375)"><g id="6.cr-big_cr_dbpqu1n2uxhf-stroke" fill="none" stroke-linecap="round" stroke-linejoin="round" stroke-miterlimit="4" stroke="#2c2c2c" stroke-width="2"><g><path d="M 10 46C 10 65.882251 26.117749 82 46 82C 65.882251 82 82 65.882251 82 46C 82 26.117749 65.882251 10 46 10C 26.117749 10 10 26.117749 10 46"></path></g></g></g><g id="g-root-6.cu-smallCircle_sy_4g2ql5n2uya4-stroke" data-item-order="-119799" data-item-id="6.cu-smallCircle_sy_4g2ql5n2uya4" data-item-class="ScenePart Indexed Stroke ColorStrokeBlack" data-item-index="6" data-renderer-id="0" transform="translate(552, 287.00201416015625)"><g id="6.cu-smallCircle_sy_4g2ql5n2uya4-stroke" fill="none" stroke-linecap="round" stroke-linejoin="round" stroke-miterlimit="4" stroke="#666666" stroke-width="2"><g><path d="M 13 9.999986C 11.343 9.999986 10 11.342986 10 12.999986C 10 14.656986 11.343 15.999986 13 15.999986C 14.657 15.999986 16 14.656986 16 12.999986C 16 11.342986 14.657 9.999986 13 9.999986Z"></path></g></g></g><g id="g-root-6.ln_ln_98gpn2uz2d-stroke" data-item-order="-119797" data-item-id="6.ln_ln_98gpn2uz2d" data-item-class="Curve Stroke ScenePart Indexed ColorStrokeBlack" data-item-index="6" data-renderer-id="0" transform="translate(555, 293.00201416015625)"><g id="6.ln_ln_98gpn2uz2d-stroke" fill="none" stroke-linecap="round" stroke-linejoin="round" stroke-miterlimit="4" stroke="#666666" stroke-width="2"><g><path d="M 10 31L 10 20.5L 10 10"></path></g></g></g><g id="g-root-5.cr-big_cr_qwjdi1n2tkhs-stroke" data-item-order="-119796" data-item-id="5.cr-big_cr_qwjdi1n2tkhs" data-item-class="Shape Stroke Fill ScenePart Indexed ColorStrokeBlack" data-item-index="5" data-renderer-id="0" transform="translate(423, 194)"><g id="5.cr-big_cr_qwjdi1n2tkhs-stroke" fill="none" stroke-linecap="round" stroke-linejoin="round" stroke-miterlimit="4" stroke="#2c2c2c" stroke-width="2"><g><path d="M 10 46C 10 65.882251 26.117749 82 46 82C 65.882251 82 82 65.882251 82 46C 82 26.117749 65.882251 10 46 10C 26.117749 10 10 26.117749 10 46"></path></g></g></g><g id="g-root-5.cu-smallCircle_sy_i0wd95n2tlah-stroke" data-item-order="-119793" data-item-id="5.cu-smallCircle_sy_i0wd95n2tlah" data-item-class="ScenePart Indexed Stroke ColorStrokeBlack" data-item-index="5" data-renderer-id="0" transform="translate(456, 286.9959716796875)"><g id="5.cu-smallCircle_sy_i0wd95n2tlah-stroke" fill="none" stroke-linecap="round" stroke-linejoin="round" stroke-miterlimit="4" stroke="#666666" stroke-width="2"><g><path d="M 13 15.999998C 14.657 15.999998 16 14.656998 16 12.999998C 16 11.342998 14.657 9.999998 13 9.999998C 11.343 9.999998 10 11.342998 10 12.999998C 10 14.656998 11.343 15.999998 13 15.999998Z"></path></g></g></g><g id="g-root-5.ln_ln_dbpqu1n2uxhe-stroke" data-item-order="-119791" data-item-id="5.ln_ln_dbpqu1n2uxhe" data-item-class="Curve Stroke ScenePart Indexed ColorStrokeBlack" data-item-index="5" data-renderer-id="0" transform="translate(459, 266)"><g id="5.ln_ln_dbpqu1n2uxhe-stroke" fill="none" stroke-linecap="round" stroke-linejoin="round" stroke-miterlimit="4" stroke="#666666" stroke-width="2"><g><path d="M 10 10L 10 20.5L 10 31"></path></g></g></g><g id="g-root-4.cr-big_cr_zs6dqxn2tix9-stroke" data-item-order="-119790" data-item-id="4.cr-big_cr_zs6dqxn2tix9" data-item-class="Shape Stroke Fill ScenePart Indexed ColorStrokeBlack" data-item-index="4" data-renderer-id="0" transform="translate(327, 313.99798583984375)"><g id="4.cr-big_cr_zs6dqxn2tix9-stroke" fill="none" stroke-linecap="round" stroke-linejoin="round" stroke-miterlimit="4" stroke="#2c2c2c" stroke-width="2"><g><path d="M 10 46C 10 65.882251 26.117749 82 46 82C 65.882251 82 82 65.882251 82 46C 82 26.117749 65.882251 10 46 10C 26.117749 10 10 26.117749 10 46"></path></g></g></g><g id="g-root-4.cu-smallCircle_sy_vccvmhn2tjpi-stroke" data-item-order="-119787" data-item-id="4.cu-smallCircle_sy_vccvmhn2tjpi" data-item-class="ScenePart Indexed Stroke ColorStrokeBlack" data-item-index="4" data-renderer-id="0" transform="translate(360, 287.00201416015625)"><g id="4.cu-smallCircle_sy_vccvmhn2tjpi-stroke" fill="none" stroke-linecap="round" stroke-linejoin="round" stroke-miterlimit="4" stroke="#666666" stroke-width="2"><g><path d="M 13 9.999986C 11.343 9.999986 10 11.342986 10 12.999986C 10 14.656986 11.343 15.999986 13 15.999986C 14.657 15.999986 16 14.656986 16 12.999986C 16 11.342986 14.657 9.999986 13 9.999986Z"></path></g></g></g><g id="g-root-4.ln_ln_mgpvdln2tki7-stroke" data-item-order="-119785" data-item-id="4.ln_ln_mgpvdln2tki7" data-item-class="Curve Stroke ScenePart Indexed ColorStrokeBlack" data-item-index="4" data-renderer-id="0" transform="translate(363, 293.00201416015625)"><g id="4.ln_ln_mgpvdln2tki7-stroke" fill="none" stroke-linecap="round" stroke-linejoin="round" stroke-miterlimit="4" stroke="#666666" stroke-width="2"><g><path d="M 10 31L 10 20.5L 10 10"></path></g></g></g><g id="g-root-3.cr-big_cr_1d30f15n2tki2-stroke" data-item-order="-119784" data-item-id="3.cr-big_cr_1d30f15n2tki2" data-item-class="Shape Stroke Fill ScenePart Indexed ColorStrokeBlack" data-item-index="3" data-renderer-id="0" transform="translate(231, 194)"><g id="3.cr-big_cr_1d30f15n2tki2-stroke" fill="none" stroke-linecap="round" stroke-linejoin="round" stroke-miterlimit="4" stroke="#2c2c2c" stroke-width="2"><g><path d="M 10 46C 10 65.882251 26.117749 82 46 82C 65.882251 82 82 65.882251 82 46C 82 26.117749 65.882251 10 46 10C 26.117749 10 10 26.117749 10 46"></path></g></g></g><g id="g-root-3.cu-smallCircle_sy_18n6wwpn2tlab-stroke" data-item-order="-119781" data-item-id="3.cu-smallCircle_sy_18n6wwpn2tlab" data-item-class="ScenePart Indexed Stroke ColorStrokeBlack" data-item-index="3" data-renderer-id="0" transform="translate(264, 286.9959716796875)"><g id="3.cu-smallCircle_sy_18n6wwpn2tlab-stroke" fill="none" stroke-linecap="round" stroke-linejoin="round" stroke-miterlimit="4" stroke="#666666" stroke-width="2"><g><path d="M 13 15.999998C 14.657 15.999998 16 14.656998 16 12.999998C 16 11.342998 14.657 9.999998 13 9.999998C 11.343 9.999998 10 11.342998 10 12.999998C 10 14.656998 11.343 15.999998 13 15.999998Z"></path></g></g></g><g id="g-root-3.ln_ln_zs6dqxn2tix8-stroke" data-item-order="-119779" data-item-id="3.ln_ln_zs6dqxn2tix8" data-item-class="Curve Stroke ScenePart Indexed ColorStrokeBlack" data-item-index="3" data-renderer-id="0" transform="translate(267, 266)"><g id="3.ln_ln_zs6dqxn2tix8-stroke" fill="none" stroke-linecap="round" stroke-linejoin="round" stroke-miterlimit="4" stroke="#666666" stroke-width="2"><g><path d="M 10 10L 10 20.5L 10 31"></path></g></g></g><g id="g-root-2.cr-big_cr_1utnyftn2tlan-stroke" data-item-order="-119778" data-item-id="2.cr-big_cr_1utnyftn2tlan" data-item-class="Shape Stroke Fill ScenePart Indexed ColorStrokeBlack" data-item-index="2" data-renderer-id="0" transform="translate(135, 314)"><g id="2.cr-big_cr_1utnyftn2tlan-stroke" fill="none" stroke-linecap="round" stroke-linejoin="round" stroke-miterlimit="4" stroke="#2c2c2c" stroke-width="2"><g><path d="M 10 46C 10 65.882251 26.117749 82 46 82C 65.882251 82 82 65.882251 82 46C 82 26.117749 65.882251 10 46 10C 26.117749 10 10 26.117749 10 46"></path></g></g></g><g id="g-root-2.cu-smallCircle_sy_1qegxehn2tix4-stroke" data-item-order="-119775" data-item-id="2.cu-smallCircle_sy_1qegxehn2tix4" data-item-class="ScenePart Indexed Stroke ColorStrokeBlack" data-item-index="2" data-renderer-id="0" transform="translate(168, 287.00201416015625)"><g id="2.cu-smallCircle_sy_1qegxehn2tix4-stroke" fill="none" stroke-linecap="round" stroke-linejoin="round" stroke-miterlimit="4" stroke="#666666" stroke-width="2"><g><path d="M 13 9.999986C 11.343 9.999986 10 11.342986 10 12.999986C 10 14.656986 11.343 15.999986 13 15.999986C 14.657 15.999986 16 14.656986 16 12.999986C 16 11.342986 14.657 9.999986 13 9.999986Z"></path></g></g></g><g id="g-root-2.ln_ln_1lynfa1n2tjpd-stroke" data-item-order="-119773" data-item-id="2.ln_ln_1lynfa1n2tjpd" data-item-class="Curve Stroke ScenePart Indexed ColorStrokeBlack" data-item-index="2" data-renderer-id="0" transform="translate(171, 293.00201416015625)"><g id="2.ln_ln_1lynfa1n2tjpd-stroke" fill="none" stroke-linecap="round" stroke-linejoin="round" stroke-miterlimit="4" stroke="#666666" stroke-width="2"><g><path d="M 10 31L 10 20.5L 10 10"></path></g></g></g><g id="g-root-1.cr-big_cr_vahgd5n2tkp0-stroke" data-item-order="-119772" data-item-id="1.cr-big_cr_vahgd5n2tkp0" data-item-class="Shape Stroke Fill ScenePart Indexed Indexed_1 ColorStrokeBlack" data-item-index="1" data-renderer-id="0" transform="translate(39, 194)"><g id="1.cr-big_cr_vahgd5n2tkp0-stroke" fill="none" stroke-linecap="round" stroke-linejoin="round" stroke-miterlimit="4" stroke="#2c2c2c" stroke-width="2"><g><path d="M 10 46C 10 65.882251 26.117749 82 46 82C 65.882251 82 82 65.882251 82 46C 82 26.117749 65.882251 10 46 10C 26.117749 10 10 26.117749 10 46"></path></g></g></g><g id="g-root-1.cu-smallCircle_sy_hznf2xn2tj45-stroke" data-item-order="-119769" data-item-id="1.cu-smallCircle_sy_hznf2xn2tj45" data-item-class="ScenePart Indexed Indexed_1 Stroke ColorStrokeBlack" data-item-index="1" data-renderer-id="0" transform="translate(72, 286.9959716796875)"><g id="1.cu-smallCircle_sy_hznf2xn2tj45-stroke" fill="none" stroke-linecap="round" stroke-linejoin="round" stroke-miterlimit="4" stroke="#666666" stroke-width="2"><g><path d="M 13 15.999998C 14.657 15.999998 16 14.656998 16 12.999998C 16 11.342998 14.657 9.999998 13 9.999998C 11.343 9.999998 10 11.342998 10 12.999998C 10 14.656998 11.343 15.999998 13 15.999998Z"></path></g></g></g><g id="g-root-1.ln_ln_940eu1n2tjwu-stroke" data-item-order="-119767" data-item-id="1.ln_ln_940eu1n2tjwu" data-item-class="Curve Stroke ScenePart Indexed Indexed_1 ColorStrokeBlack" data-item-index="1" data-renderer-id="0" transform="translate(75, 266)"><g id="1.ln_ln_940eu1n2tjwu-stroke" fill="none" stroke-linecap="round" stroke-linejoin="round" stroke-miterlimit="4" stroke="#666666" stroke-width="2"><g><path d="M 10 10L 10 20.5L 10 31"></path></g></g></g><g id="g-root-tx_enhancea_hss74pn2uyva-stroke" data-item-order="0" data-item-id="tx_enhancea_hss74pn2uyva" data-item-class="Label Stroke SceneTarget Indexed ColorStrokeBlack" data-item-index="6" data-renderer-id="0" transform="translate(483, 398)"></g><g id="g-root-onli_1d2e7fdn2fhfr-stroke" data-item-order="0" data-item-id="onli_1d2e7fdn2fhfr" data-item-class="Icon Stroke SceneTarget Indexed InsideFill InsideColorFill ColorStrokeBlack" data-item-index="5" data-renderer-id="0" transform="translate(435, 206)"><g id="onli_1d2e7fdn2fhfr-stroke" fill="none" stroke-linecap="round" stroke-linejoin="round" stroke-miterlimit="4" stroke="#2c2c2c" stroke-width="2"><g><path d="M 41.422001 43.257999C 41.421997 44.944675 42.789322 46.312 44.475998 46.312C 46.162678 46.312 47.529999 44.944675 47.529999 43.257999C 47.529999 41.57132 46.162678 40.203999 44.475998 40.203999C 42.789322 40.203999 41.421997 41.57132 41.421997 43.257999M 47.07 31.444L 47.970001 34.400002C 48.275921 35.419617 49.320618 36.026836 50.357998 35.788002L 53.358002 35.091999C 54.524891 34.826248 55.728653 35.352654 56.325775 36.389809C 56.922901 37.426971 56.773727 38.7323 55.958 39.608002L 53.860001 41.870003C 53.135555 42.652771 53.135555 43.861229 53.860001 44.644001L 55.958 46.905998C 56.773727 47.7817 56.922901 49.087032 56.325775 50.124191C 55.728653 51.16135 54.524891 51.687756 53.358002 51.422001L 50.358002 50.728001C 49.321201 50.488987 48.276752 51.095188 47.970001 52.113998L 47.07 55.071999C 46.724243 56.215435 45.670567 56.997612 44.476002 56.997612C 43.281433 56.997612 42.227757 56.215435 41.882 55.071999L 40.98 52.113998C 40.673248 51.095188 39.628799 50.488987 38.591999 50.728001L 35.591999 51.422001C 34.424255 51.690891 33.21793 51.165085 32.620041 50.126598C 32.022148 49.088108 32.17313 47.780861 32.991997 46.905998L 35.09 44.644001C 35.814445 43.861229 35.814445 42.652771 35.09 41.870003L 33 39.599998C 32.181129 38.725136 32.030151 37.417889 32.62804 36.379402C 33.225929 35.340912 34.432255 34.815105 35.599998 35.084L 38.599998 35.779999C 39.632393 36.014809 40.670918 35.412643 40.98 34.400002L 41.882 31.444C 42.225403 30.298214 43.279858 29.513449 44.476002 29.513449C 45.672142 29.513449 46.726597 30.298214 47.07 31.444ZM 26.365999 56.810001L 27.892 47.647999M 21.784 56.810001L 36.035999 56.810001M 27.934 47.647999L 17.200001 47.647999C 13.828207 47.64579 11.095999 44.911793 11.096 41.540001L 11.096 17.108C 11.095999 13.736206 13.828207 11.002208 17.200001 11L 50.799999 11C 54.173355 11 56.908001 13.734645 56.907997 17.108L 56.908001 28.813999M 27.128 19.473999L 22.788 25.26C 22.522263 25.613449 22.116436 25.834442 21.675356 25.865894C 21.234274 25.897343 20.801197 25.736168 20.487999 25.424L 18.132 23.068001M 27.128 31.18L 22.788 36.966C 22.523064 37.32061 22.117037 37.542511 21.675507 37.573997C 21.233974 37.605476 20.800571 37.443436 20.488001 37.130001L 18.132 34.776001M 36.035999 21.688L 47.234001 21.688"></path></g></g></g><g id="g-root-tran_mg3nrtn2fhft-stroke" data-item-order="0" data-item-id="tran_mg3nrtn2fhft" data-item-class="Icon Stroke SceneTarget Indexed InsideFill InsideColorFill ColorStrokeBlack" data-item-index="3" data-renderer-id="0" transform="translate(243, 206)"><g id="tran_mg3nrtn2fhft-stroke" fill="none" stroke-linecap="round" stroke-linejoin="round" stroke-miterlimit="4" stroke="#2c2c2c" stroke-width="2"><g><path d="M 32.285713 56.285713L 43.05143 31.154285C 43.259045 30.656004 43.745911 30.331429 44.285713 30.331429C 44.82552 30.331429 45.312386 30.656004 45.52 31.154285L 56.285713 56.285713M 37.119999 45.005714L 51.451431 45.005714M 11.714286 18.571428L 42.57143 18.571428M 27.142857 11.714286L 27.142857 18.571428M 37.428574 18.571428L 16.857143 42.57143M 16.857143 18.571428L 30.365715 34.342857"></path></g></g></g><g id="g-root-sear_1qf3nyxn2fi0z-stroke" data-item-order="0" data-item-id="sear_1qf3nyxn2fi0z" data-item-class="Icon Stroke SceneTarget Indexed Indexed_1 InsideFill InsideColorFill ColorStrokeBlack" data-item-index="1" data-renderer-id="0" transform="translate(51, 206)"><g id="sear_1qf3nyxn2fi0z-stroke" fill="none" stroke-linecap="round" stroke-linejoin="round" stroke-miterlimit="4" stroke="#2c2c2c" stroke-width="2"><g><path d="M 53.119999 44C 53.15303 49.00354 49.123672 53.086506 44.120132 53.119606C 39.116592 53.152702 35.033569 49.123405 35.000397 44.119865C 34.967224 39.116329 38.996464 35.033249 44.000004 35C 49.003746 34.966755 53.086975 38.996254 53.120003 44.000004ZM 57 57L 50.459999 50.459999M 26 24C 26 28.418278 29.581722 32 34 32C 38.418278 32 42 28.418278 42 24C 42 19.581722 38.418278 16 34 16C 29.581722 16 26 19.581722 26 24M 34 21C 35.656853 21 37 22.343147 37 24C 37 25.656855 35.656853 27 34 27C 32.343147 27 31 25.656855 31 24M 48.619999 31.84C 51.605339 29.773941 54.337425 27.364067 56.759998 24.66C 57.075008 24.276382 57.075008 23.723618 56.759998 23.34C 54.419998 20.700001 45.119999 11 34 11C 22.880001 11 13.58 20.700001 11.24 23.34C 10.924988 23.723618 10.924988 24.276382 11.24 24.66C 13.5 27.219999 22.360001 36.459999 33.059998 36.98"></path></g></g></g><g id="g-root-tx_digitize_1q7lpg9n2uyo7-stroke" data-item-order="0" data-item-id="tx_digitize_1q7lpg9n2uyo7" data-item-class="Label Stroke SceneTarget Indexed ColorStrokeBlack" data-item-index="5" data-renderer-id="0" transform="translate(387, 134)"></g><g id="g-root-tx_convertv_1upamu1n2uww9-stroke" data-item-order="0" data-item-id="tx_convertv_1upamu1n2uww9" data-item-class="Label Stroke SceneTarget Indexed ColorStrokeBlack" data-item-index="3" data-renderer-id="0" transform="translate(195, 86)"></g><g id="g-root-tx_useocrso_mbq2opn2uz9f-stroke" data-item-order="0" data-item-id="tx_useocrso_mbq2opn2uz9f" data-item-class="Label Stroke SceneTarget Indexed Indexed_1 ColorStrokeBlack" data-item-index="1" data-renderer-id="0" transform="translate(15, 86)"></g><g id="g-root-2_94n5ehn2fj0q-stroke" data-item-order="0" data-item-id="2_94n5ehn2fj0q" data-item-class="Icon Stroke SceneTarget Indexed InsideFill InsideColorFill ColorStrokeBlack" data-item-index="2" data-renderer-id="0" transform="translate(147, 326)"><g id="2_94n5ehn2fj0q-stroke" fill="none" stroke-linecap="round" stroke-linejoin="round" stroke-miterlimit="4" stroke="#2c2c2c" stroke-width="2"><g><path d="M 56.285713 46L 56.285713 52.857143C 56.285713 54.750694 54.750694 56.285713 52.857143 56.285713L 46 56.285713M 46 11.714286L 52.857143 11.714286C 54.750694 11.714286 56.285713 13.24931 56.285713 15.142858L 56.285713 22M 11.714286 22L 11.714286 15.142858C 11.714286 13.24931 13.24931 11.714286 15.142858 11.714286L 22 11.714286M 22 56.285713L 15.142858 56.285713C 13.24931 56.285713 11.714286 54.750694 11.714286 52.857143L 11.714286 46M 23.714287 22L 23.714287 28.857143M 44.285713 22L 44.285713 28.857143M 34 25.428572L 34 37.428574L 28.857143 37.428574M 25.428572 44.285713C 30.232044 48.848454 37.76796 48.848454 42.57143 44.285713"></path></g></g></g><g id="g-root-3_zqxp21n2fj0o-stroke" data-item-order="0" data-item-id="3_zqxp21n2fj0o" data-item-class="Icon Stroke SceneTarget Indexed InsideFill InsideColorFill ColorStrokeBlack" data-item-index="4" data-renderer-id="0" transform="translate(339, 326)"><g id="3_zqxp21n2fj0o-stroke" fill="none" stroke-linecap="round" stroke-linejoin="round" stroke-miterlimit="4" stroke="#2c2c2c" stroke-width="2"><g><path d="M 48 31L 55 31C 56.104568 31 57 31.89543 57 33L 57 47C 57 48.104568 56.104568 49 55 49L 13 49C 11.895431 49 11 48.104568 11 47L 11 33C 11 31.89543 11.895431 31 13 31L 24 31M 36.321999 35.760002L 26.424 39.998001L 30.666 30.1L 48.344002 12.422L 54 18.077999L 36.321999 35.760002ZM 50.327999 21.75L 44.672001 16.096001M 36.321999 35.760002L 30.666 30.1"></path></g></g></g><g id="g-root-alig_1qd88pln2fj0m-stroke" data-item-order="0" data-item-id="alig_1qd88pln2fj0m" data-item-class="Icon Stroke SceneTarget Indexed InsideFill InsideColorFill ColorStrokeBlack" data-item-index="6" data-renderer-id="0" transform="translate(531, 326)"><g id="alig_1qd88pln2fj0m-stroke" fill="none" stroke-linecap="round" stroke-linejoin="round" stroke-miterlimit="4" stroke="#2c2c2c" stroke-width="2"><g><path d="M 56.285713 13.428572L 11.714286 13.428572M 56.285713 23.714287L 11.714286 23.714287M 56.285713 34L 11.714286 34M 56.285713 54.57143L 11.714286 54.57143M 56.285713 44.285713L 11.714286 44.285713"></path></g></g></g><g id="g-root-tx_identify_143036hn2uwwa-stroke" data-item-order="0" data-item-id="tx_identify_143036hn2uwwa" data-item-class="Label Stroke SceneTarget Indexed ColorStrokeBlack" data-item-index="2" data-renderer-id="0" transform="translate(99, 398)"></g><g id="g-root-tx_accessan_18gy61ln2uxvk-stroke" data-item-order="0" data-item-id="tx_accessan_18gy61ln2uxvk" data-item-class="Label Stroke SceneTarget Indexed ColorStrokeBlack" data-item-index="4" data-renderer-id="0" transform="translate(297, 398)"></g><g id="g-root-tx_extractt_5915ln2uyh8-stroke" data-item-order="0" data-item-id="tx_extractt_5915ln2uyh8" data-item-class="Label Stroke SceneTarget SceneTitle ColorStrokeBlack" data-item-index="none" data-renderer-id="0" transform="translate(201, 2)"></g></g></g></svg>