<?xml version="1.0" encoding="utf-8" standalone="yes"?>
<!DOCTYPE svg PUBLIC "-//W3C//DTD SVG 1.1//EN" "http://www.w3.org/Graphics/SVG/1.1/DTD/svg11.dtd">
<svg width="552" height="120" viewBox="0 0 552 120" style="fill:none;stroke:none;fill-rule:evenodd;clip-rule:evenodd;stroke-linecap:round;stroke-linejoin:round;stroke-miterlimit:1.5;" version="1.1" xmlns="http://www.w3.org/2000/svg" xmlns:xlink="http://www.w3.org/1999/xlink"><style id="fontImports">@import url("https://fonts.googleapis.com/css2?family=Roboto:wght@400;700&amp;display=block");</style><g id="items" style="isolation: isolate"><g id="blend" style="mix-blend-mode:multiply"><g id="g-root-code_1q7lcz7t6c5xi-fill" data-item-order="0" data-item-id="code_1q7lcz7t6c5xi" data-item-class="Icon Stroke SceneTarget Indexed" data-item-index="none" data-renderer-id="0" transform="translate(50, 8)"></g><g id="g-root-file_144v5yrt6kkqr-fill" data-item-order="0" data-item-id="file_144v5yrt6kkqr" data-item-class="Icon Stroke SceneTarget Indexed" data-item-index="none" data-renderer-id="0" transform="translate(182, 8)"></g><g id="g-root-edit_743xvt6kmbo-fill" data-item-order="0" data-item-id="edit_743xvt6kmbo" data-item-class="Icon Stroke SceneTarget Indexed" data-item-index="none" data-renderer-id="0" transform="translate(314, 8)"></g><g id="g-root-came_18lxm9ft6km4l-fill" data-item-order="0" data-item-id="came_18lxm9ft6km4l" data-item-class="Icon Stroke SceneTarget Indexed" data-item-index="none" data-renderer-id="0" transform="translate(446, 8)"></g><g id="g-root-tx_qrcode_1lrrldft6c6bl-fill" data-item-order="0" data-item-id="tx_qrcode_1lrrldft6c6bl" data-item-class="Label Stroke SceneTarget Indexed" data-item-index="none" data-renderer-id="0" transform="translate(26, 56)"><g id="tx_qrcode_1lrrldft6c6bl-fill" stroke="none" fill="#484848"><g><text style="font: 20px Roboto, sans-serif; white-space: pre;"><tspan x="14.61" y="34" dominant-baseline="ideographic">QR code</tspan></text></g></g></g><g id="g-root-tx_text_zlajubt6c5je-fill" data-item-order="0" data-item-id="tx_text_zlajubt6c5je" data-item-class="Label Stroke SceneTarget Indexed" data-item-index="none" data-renderer-id="0" transform="translate(176, 56)"><g id="tx_text_zlajubt6c5je-fill" stroke="none" fill="#484848"><g><text style="font: 20px Roboto, sans-serif; white-space: pre;"><tspan x="17.21" y="34" dominant-baseline="ideographic">text</tspan></text></g></g></g><g id="g-root-tx_onlineto_m9u1gzt6c74b-fill" data-item-order="0" data-item-id="tx_onlineto_m9u1gzt6c74b" data-item-class="Label Stroke SceneTarget Indexed" data-item-index="none" data-renderer-id="0" transform="translate(278, 56)"><g id="tx_onlineto_m9u1gzt6c74b-fill" stroke="none" fill="#484848"><g><text style="font: 20px Roboto, sans-serif; white-space: pre;"><tspan x="12.47" y="34" dominant-baseline="ideographic">online tools</tspan></text></g></g></g><g id="g-root-tx_scan_8z006rt6c5jg-fill" data-item-order="0" data-item-id="tx_scan_8z006rt6c5jg" data-item-class="Label Stroke SceneTarget Indexed" data-item-index="none" data-renderer-id="0" transform="translate(440, 56)"><g id="tx_scan_8z006rt6c5jg-fill" stroke="none" fill="#484848"><g><text style="font: 20px Roboto, sans-serif; white-space: pre;"><tspan x="12.65" y="34" dominant-baseline="ideographic">scan</tspan></text></g></g></g><g id="g-root-code_1q7lcz7t6c5xi-stroke" data-item-order="0" data-item-id="code_1q7lcz7t6c5xi" data-item-class="Icon Stroke SceneTarget Indexed" data-item-index="none" data-renderer-id="0" transform="translate(50, 8)"><g id="code_1q7lcz7t6c5xi-stroke" fill="none" stroke-linecap="round" stroke-linejoin="round" stroke-miterlimit="4" stroke="#e3cd09" stroke-width="2"><g><path d="M 18.25 10.75L 37.75 10.75L 37.75 45.25L 18.25 45.25ZM 37.75 16.75L 18.25 16.75M 37.75 39.25L 18.25 39.25M 24.25 13.75L 31.75 13.75M 28 41.875L 28 41.875C 28.207108 41.875 28.375 42.042892 28.375 42.25L 28.375 42.25C 28.375 42.457108 28.207108 42.625 28 42.625L 28 42.625C 27.792892 42.625 27.625 42.457108 27.625 42.25L 27.625 42.25C 27.625 42.042892 27.792892 41.875 28 41.875M 21.243999 21.25L 24.243999 21.25L 24.243999 24.25L 21.243999 24.25ZM 21.243999 31.75L 24.243999 31.75L 24.243999 34.75L 21.243999 34.75ZM 31.743999 21.25L 34.743999 21.25L 34.743999 24.25L 31.743999 24.25ZM 21.243999 28.75L 27.243999 28.75L 27.243999 30.25M 30.243999 30.25L 30.243999 34.75L 34.743999 34.75L 34.743999 30.25L 33.243999 30.25M 27.243999 33.25L 27.243999 34.75M 27.243999 21.25L 27.243999 25.75L 28.743999 25.75M 31.743999 27.25L 34.743999 27.25"></path></g></g></g><g id="g-root-file_144v5yrt6kkqr-stroke" data-item-order="0" data-item-id="file_144v5yrt6kkqr" data-item-class="Icon Stroke SceneTarget Indexed" data-item-index="none" data-renderer-id="0" transform="translate(182, 8)"><g id="file_144v5yrt6kkqr-stroke" fill="none" stroke-linecap="round" stroke-linejoin="round" stroke-miterlimit="4" stroke="#dd8433" stroke-width="2"><g><path d="M 42.142857 42.142857C 42.142857 43.563019 40.991589 44.714287 39.571426 44.714287L 16.428572 44.714287C 15.00841 44.714287 13.857142 43.563019 13.857142 42.142857L 13.857142 13.857142C 13.857142 12.436982 15.00841 11.285714 16.428572 11.285714L 29.285713 11.285714L 42.142857 24.142857ZM 29.285713 11.285714L 29.285713 24.142857L 42.142857 24.142857"></path></g></g></g><g id="g-root-edit_743xvt6kmbo-stroke" data-item-order="0" data-item-id="edit_743xvt6kmbo" data-item-class="Icon Stroke SceneTarget Indexed" data-item-index="none" data-renderer-id="0" transform="translate(314, 8)"><g id="edit_743xvt6kmbo-stroke" fill="none" stroke-linecap="round" stroke-linejoin="round" stroke-miterlimit="4" stroke="#da5da8" stroke-width="2"><g><path d="M 45.25 22.375L 45.25 39.625C 45.25 41.281857 43.906857 42.625 42.25 42.625L 13.75 42.625C 12.093145 42.625 10.75 41.281857 10.75 39.625L 10.75 17.125C 10.75 15.468145 12.093145 14.125 13.75 14.125L 35.5 14.125M 10.75 21.625L 28.75 21.625M 16.375 17.125C 16.582108 17.125 16.75 17.292892 16.75 17.5C 16.75 17.707108 16.582108 17.875 16.375 17.875C 16.167892 17.875 16 17.707108 16 17.5C 16 17.292892 16.167892 17.125 16.375 17.125M 20.875 17.125C 21.082108 17.125 21.25 17.292892 21.25 17.5C 21.25 17.707108 21.082108 17.875 20.875 17.875C 20.667892 17.875 20.5 17.707108 20.5 17.5C 20.5 17.292892 20.667892 17.125 20.875 17.125M 25.375 17.125C 25.582108 17.125 25.75 17.292892 25.75 17.5C 25.75 17.707108 25.582108 17.875 25.375 17.875C 25.167892 17.875 25 17.707108 25 17.5C 25 17.292892 25.167892 17.125 25.375 17.125M 35.5 26.875L 30.25 28.375L 31.75 23.125L 40.75 14.125C 41.793892 13.089899 43.479183 13.096819 44.514542 14.140457C 45.549896 15.184095 45.543388 16.86939 44.5 17.905001ZM 39.595001 15.28L 43.345001 19.030001M 31.75 23.125L 35.5 26.875M 15.25 27.625L 22 27.625M 15.25 32.125L 29.5 32.125M 15.25 36.625L 39.25 36.625"></path></g></g></g><g id="g-root-came_18lxm9ft6km4l-stroke" data-item-order="0" data-item-id="came_18lxm9ft6km4l" data-item-class="Icon Stroke SceneTarget Indexed" data-item-index="none" data-renderer-id="0" transform="translate(446, 8)"><g id="came_18lxm9ft6km4l-stroke" fill="none" stroke-linecap="round" stroke-linejoin="round" stroke-miterlimit="4" stroke="#b65edf" stroke-width="2"><g><path d="M 12.25 19L 43.75 19C 43.75 19 45.25 19 45.25 20.5L 45.25 38.5C 45.25 38.5 45.25 40 43.75 40L 12.25 40C 12.25 40 10.75 40 10.75 38.5L 10.75 20.5C 10.75 20.5 10.75 19 12.25 19M 14.5 19L 14.5 17.5C 14.5 16.671574 15.171573 16 16 16L 19 16C 19.828426 16 20.5 16.671574 20.5 17.5L 20.5 19M 10.75 26.5L 22 26.5M 10.75 29.5L 22 29.5M 10.75 32.5L 22 32.5M 27.25 29.5C 27.25 33.642136 30.607864 37 34.75 37C 38.892136 37 42.25 33.642136 42.25 29.5C 42.25 25.357864 38.892136 22 34.75 22C 30.607864 22 27.25 25.357864 27.25 29.5M 32.5 26.5L 37 26.5C 37 26.5 37.75 26.5 37.75 27.25L 37.75 31.75C 37.75 31.75 37.75 32.5 37 32.5L 32.5 32.5C 32.5 32.5 31.75 32.5 31.75 31.75L 31.75 27.25C 31.75 27.25 31.75 26.5 32.5 26.5"></path></g></g></g><g id="g-root-tx_qrcode_1lrrldft6c6bl-stroke" data-item-order="0" data-item-id="tx_qrcode_1lrrldft6c6bl" data-item-class="Label Stroke SceneTarget Indexed" data-item-index="none" data-renderer-id="0" transform="translate(26, 56)"></g><g id="g-root-tx_text_zlajubt6c5je-stroke" data-item-order="0" data-item-id="tx_text_zlajubt6c5je" data-item-class="Label Stroke SceneTarget Indexed" data-item-index="none" data-renderer-id="0" transform="translate(176, 56)"></g><g id="g-root-tx_onlineto_m9u1gzt6c74b-stroke" data-item-order="0" data-item-id="tx_onlineto_m9u1gzt6c74b" data-item-class="Label Stroke SceneTarget Indexed" data-item-index="none" data-renderer-id="0" transform="translate(278, 56)"></g><g id="g-root-tx_scan_8z006rt6c5jg-stroke" data-item-order="0" data-item-id="tx_scan_8z006rt6c5jg" data-item-class="Label Stroke SceneTarget Indexed" data-item-index="none" data-renderer-id="0" transform="translate(440, 56)"></g></g></g></svg>