<?xml version="1.0" encoding="utf-8" standalone="yes"?>
<!DOCTYPE svg PUBLIC "-//W3C//DTD SVG 1.1//EN" "http://www.w3.org/Graphics/SVG/1.1/DTD/svg11.dtd">
<svg width="552" height="150" viewBox="0 0 552 150" style="fill:none;stroke:none;fill-rule:evenodd;clip-rule:evenodd;stroke-linecap:round;stroke-linejoin:round;stroke-miterlimit:1.5;" version="1.1" xmlns="http://www.w3.org/2000/svg" xmlns:xlink="http://www.w3.org/1999/xlink"><style id="fontImports">@import url("https://fonts.googleapis.com/css2?family=Roboto:wght@400;700&amp;display=block");</style><g id="items" style="isolation: isolate"><g id="blend" style="mix-blend-mode:multiply"><g id="g-root-sear_dbpr08nmbv2j-fill" data-item-order="0" data-item-id="sear_dbpr08nmbv2j" data-item-class="Icon Stroke SceneTarget Indexed" data-item-index="none" data-renderer-id="0" transform="translate(50, 8)"></g><g id="g-root-1_1hapr7cnmbvno-fill" data-item-order="0" data-item-id="1_1hapr7cnmbvno" data-item-class="Icon Stroke SceneTarget Indexed" data-item-index="none" data-renderer-id="0" transform="translate(182, 8)"></g><g id="g-root-2_24nw8nmbvnp-fill" data-item-order="0" data-item-id="2_24nw8nmbvnp" data-item-class="Icon Stroke SceneTarget Indexed" data-item-index="none" data-renderer-id="0" transform="translate(314, 8)"></g><g id="g-root-cc_18gy67snmbvgm-fill" data-item-order="0" data-item-id="cc_18gy67snmbvgm" data-item-class="Icon Stroke SceneTarget Indexed" data-item-index="none" data-renderer-id="0" transform="translate(446, 8)"></g><g id="g-root-tx_opticalc_mgpfqwnmahoi-fill" data-item-order="0" data-item-id="tx_opticalc_mgpfqwnmahoi" data-item-class="Label Stroke SceneTarget Indexed" data-item-index="none" data-renderer-id="0" transform="translate(14, 56)"><g id="tx_opticalc_mgpfqwnmahoi-fill" stroke="none" fill="#484848"><g><text style="font: 20px Roboto, sans-serif; white-space: pre;"><tspan x="33.89" y="34" dominant-baseline="ideographic">optical </tspan><tspan x="22" y="58" dominant-baseline="ideographic">character </tspan><tspan x="14" y="82" dominant-baseline="ideographic">recognition</tspan></text></g></g></g><g id="g-root-tx_textextr_8su0nmbvgr-fill" data-item-order="0" data-item-id="tx_textextr_8su0nmbvgr" data-item-class="Label Stroke SceneTarget Indexed" data-item-index="none" data-renderer-id="0" transform="translate(134, 56)"><g id="tx_textextr_8su0nmbvgr-fill" stroke="none" fill="#484848"><g><text style="font: 20px Roboto, sans-serif; white-space: pre;"><tspan x="12.44" y="34" dominant-baseline="ideographic">text extraction</tspan></text></g></g></g><g id="g-root-tx_image_1lpwcfsnmbwuk-fill" data-item-order="0" data-item-id="tx_image_1lpwcfsnmbwuk" data-item-class="Label Stroke SceneTarget Indexed" data-item-index="none" data-renderer-id="0" transform="translate(302, 56)"><g id="tx_image_1lpwcfsnmbwuk-fill" stroke="none" fill="#484848"><g><text style="font: 20px Roboto, sans-serif; white-space: pre;"><tspan x="12.46" y="34" dominant-baseline="ideographic">image</tspan></text></g></g></g><g id="g-root-tx_accessib_v3lss8nmbwul-fill" data-item-order="0" data-item-id="tx_accessib_v3lss8nmbwul" data-item-class="Label Stroke SceneTarget Indexed" data-item-index="none" data-renderer-id="0" transform="translate(404, 56)"><g id="tx_accessib_v3lss8nmbwul-fill" stroke="none" fill="#484848"><g><text style="font: 20px Roboto, sans-serif; white-space: pre;"><tspan x="15.16" y="34" dominant-baseline="ideographic">accessibility</tspan></text></g></g></g><g id="g-root-sear_dbpr08nmbv2j-stroke" data-item-order="0" data-item-id="sear_dbpr08nmbv2j" data-item-class="Icon Stroke SceneTarget Indexed" data-item-index="none" data-renderer-id="0" transform="translate(50, 8)"><g id="sear_dbpr08nmbv2j-stroke" fill="none" stroke-linecap="round" stroke-linejoin="round" stroke-miterlimit="4" stroke="#e3cd09" stroke-width="2"><g><path d="M 42.34 35.5C 42.364773 39.252655 39.342754 42.31488 35.590099 42.339706C 31.837444 42.364525 28.775179 39.342552 28.750299 35.589897C 28.72542 31.837246 31.747349 28.774935 35.500004 28.750002C 39.252808 28.725067 42.315231 31.747192 42.340004 35.500004ZM 45.25 45.25L 40.345001 40.345001M 22 20.5C 22 23.813709 24.686291 26.5 28 26.5C 31.313709 26.5 34 23.813709 34 20.5C 34 17.186291 31.313709 14.5 28 14.5C 24.686291 14.5 22 17.186291 22 20.5M 28 18.25C 29.242641 18.25 30.25 19.25736 30.25 20.5C 30.25 21.742641 29.242641 22.75 28 22.75C 26.75736 22.75 25.75 21.742641 25.75 20.5M 38.965 26.380001C 41.204002 24.830456 43.253067 23.02305 45.07 20.994999C 45.306255 20.707287 45.306255 20.292713 45.07 20.004999C 43.314999 18.025 36.34 10.75 28 10.75C 19.66 10.75 12.684999 18.025 10.93 20.005001C 10.693741 20.292713 10.693741 20.707287 10.93 20.994999C 12.625 22.914999 19.27 29.844999 27.295 30.235001"></path></g></g></g><g id="g-root-1_1hapr7cnmbvno-stroke" data-item-order="0" data-item-id="1_1hapr7cnmbvno" data-item-class="Icon Stroke SceneTarget Indexed" data-item-index="none" data-renderer-id="0" transform="translate(182, 8)"><g id="1_1hapr7cnmbvno-stroke" fill="none" stroke-linecap="round" stroke-linejoin="round" stroke-miterlimit="4" stroke="#dd8433" stroke-width="2"><g><path d="M 39.266499 28.75L 39.266499 19.709499C 39.264843 14.760819 35.252678 10.75 30.303999 10.75L 12.2665 10.75C 11.438073 10.75 10.7665 11.421573 10.7665 12.25L 10.7665 43.75C 10.7665 44.578426 11.438073 45.25 12.2665 45.25L 18.2335 45.25M 31.766499 10.8685L 31.766499 16.75C 31.766499 17.578426 32.438072 18.25 33.266499 18.25L 39.1465 18.25M 21.2335 33.248501L 27.233501 33.248501M 24.233501 33.248501L 24.233501 45.248501M 39.233501 33.248501L 45.233501 33.248501M 42.233501 33.248501L 42.233501 45.248501M 30.233501 45.248501L 36.233501 33.248501M 36.233501 45.248501L 30.233501 33.248501"></path></g></g></g><g id="g-root-2_24nw8nmbvnp-stroke" data-item-order="0" data-item-id="2_24nw8nmbvnp" data-item-class="Icon Stroke SceneTarget Indexed" data-item-index="none" data-renderer-id="0" transform="translate(314, 8)"><g id="2_24nw8nmbvnp-stroke" fill="none" stroke-linecap="round" stroke-linejoin="round" stroke-miterlimit="4" stroke="#da5da8" stroke-width="2"><g><path d="M 42.142857 44.714287L 13.857142 44.714287C 13.857142 44.714287 11.285714 44.714287 11.285714 42.142857L 11.285714 13.857142C 11.285714 13.857142 11.285714 11.285714 13.857142 11.285714L 42.142857 11.285714C 42.142857 11.285714 44.714287 11.285714 44.714287 13.857142L 44.714287 42.142857C 44.714287 42.142857 44.714287 44.714287 42.142857 44.714287M 11.285714 38.285713L 44.714287 38.285713M 19.874285 38.285713L 33.271427 25.737143C 33.748146 25.340071 34.440422 25.340071 34.917141 25.737143L 44.714287 32.757145M 17.714285 21.571428C 17.714287 23.70167 19.441187 25.428572 21.571428 25.428572C 23.70167 25.428572 25.428572 23.70167 25.428572 21.571428C 25.428572 19.441187 23.70167 17.714287 21.571428 17.714287C 19.441187 17.714287 17.714287 19.441187 17.714287 21.571428"></path></g></g></g><g id="g-root-cc_18gy67snmbvgm-stroke" data-item-order="0" data-item-id="cc_18gy67snmbvgm" data-item-class="Icon Stroke SceneTarget Indexed" data-item-index="none" data-renderer-id="0" transform="translate(446, 8)"><g id="cc_18gy67snmbvgm-stroke" fill="none" stroke-linecap="round" stroke-linejoin="round" stroke-miterlimit="4" stroke="#b65edf" stroke-width="2"><g><path d="M 20.696501 36.625C 15.933044 36.625 12.0715 32.763454 12.0715 28C 12.0715 23.236544 15.933044 19.375 20.696501 19.375C 22.038548 19.374113 23.3617 19.69128 24.557501 20.300501C 25.670906 20.863831 26.116831 22.223095 25.553501 23.3365C 24.99017 24.449905 23.630905 24.89583 22.5175 24.3325C 21.953979 24.043566 21.329777 23.892914 20.696501 23.893C 18.428669 23.893568 16.59053 25.732166 16.59053 27.999998C 16.59053 30.26783 18.428669 32.10643 20.696499 32.106998C 21.36154 32.107277 22.01602 31.940691 22.6 31.622501C 23.695187 31.063484 25.036343 31.482401 25.618641 32.565388C 26.200941 33.648376 25.810791 34.99818 24.740499 35.603497C 23.497316 36.27216 22.108097 36.62307 20.696501 36.625ZM 38.696503 36.625C 33.933044 36.625 30.071501 32.763454 30.071501 28C 30.071501 23.236544 33.933044 19.375 38.696503 19.375C 40.038551 19.374113 41.361702 19.69128 42.557503 20.300501C 43.670906 20.863831 44.116833 22.223095 43.553497 23.3365C 42.99017 24.449905 41.630905 24.89583 40.517498 24.3325C 39.953979 24.043566 39.329777 23.892914 38.696503 23.893C 36.428669 23.893568 34.59053 25.732166 34.59053 27.999998C 34.59053 30.26783 36.428669 32.10643 38.696499 32.106998C 39.361034 32.107025 40.014969 31.940449 40.598499 31.622501C 41.693687 31.063484 43.034843 31.482401 43.617142 32.565388C 44.19944 33.648376 43.809292 34.99818 42.738998 35.603497C 41.496265 36.271919 40.10759 36.622822 38.696503 36.625Z"></path></g></g></g><g id="g-root-tx_opticalc_mgpfqwnmahoi-stroke" data-item-order="0" data-item-id="tx_opticalc_mgpfqwnmahoi" data-item-class="Label Stroke SceneTarget Indexed" data-item-index="none" data-renderer-id="0" transform="translate(14, 56)"></g><g id="g-root-tx_textextr_8su0nmbvgr-stroke" data-item-order="0" data-item-id="tx_textextr_8su0nmbvgr" data-item-class="Label Stroke SceneTarget Indexed" data-item-index="none" data-renderer-id="0" transform="translate(134, 56)"></g><g id="g-root-tx_image_1lpwcfsnmbwuk-stroke" data-item-order="0" data-item-id="tx_image_1lpwcfsnmbwuk" data-item-class="Label Stroke SceneTarget Indexed" data-item-index="none" data-renderer-id="0" transform="translate(302, 56)"></g><g id="g-root-tx_accessib_v3lss8nmbwul-stroke" data-item-order="0" data-item-id="tx_accessib_v3lss8nmbwul" data-item-class="Label Stroke SceneTarget Indexed" data-item-index="none" data-renderer-id="0" transform="translate(404, 56)"></g></g></g></svg>